<?xml version="1.0" encoding="UTF-8" standalone="no"?>
<!-- Created with Inkscape (http://www.inkscape.org/) -->

<svg
   xmlns:svg="http://www.w3.org/2000/svg"
   xmlns="http://www.w3.org/2000/svg"
   version="1.0"
   width="396"
   height="552"
   id="svg7657">
  <defs
     id="defs8" />
  <path
     d="m 0,0 0,417.06666 c 0.03105849,28.1997 16.51223,55.11543 44.182617,67.275 L 198,552 351.81738,484.34166 c 27.67038,-12.15957 44.1516,-39.0753 44.18262,-67.275 L 396,0 0,0 z"
     id="path7372"
     style="fill:#ffd500" />
  <path
     d="m 6,6 0,408 c 0.030117,27.58665 16.011859,53.91726 42.84375,65.8125 L 198,546 347.15625,479.8125 C 373.98813,467.91726 389.96991,441.58665 390,414 L 390,6 6,6 z"
     id="path7710"
     style="fill:#005bbb" />
  <path
     d="M 198,30.4686 C 186.81565,43.158 180,59.7684 180,78 c 0.66279,40.0311 5.57351,79.9809 6,120 0.88783,37.2969 -10.30141,72.3276 -23.90625,106.5 -4.5333,9.4431 -9.43701,18.6858 -14.34375,27.9375 l -14.4375,-2.9064 c -12.9909,-2.5971 -21.441,-15.2277 -18.84375,-28.2186 2.27262,-11.367 12.27758,-19.2603 23.4375,-19.3125 l 5.25,0.5625 -11.71875,-97.875 C 127.60716,141.1032 105.12139,102.873 72,78 66.308208,73.7256 60.277488,69.8178 54,66.375 L 54,414 l 80.25,0 c 6.00037,32.5734 23.92733,60.9507 49.125,80.4375 5.99363,4.131 11.01413,9.5793 14.625,15.9375 3.61087,-6.3582 8.63137,-11.8065 14.625,-15.9375 C 237.82267,474.9507 255.74963,446.5734 261.75,414 l 80.25,0 0,-347.625 c -6.2775,3.4428 -12.30822,7.3506 -18,11.625 -33.12139,24.873 -55.60716,63.1032 -59.4375,106.6875 l -11.71875,97.875 5.25,-0.5625 c 11.15992,0.0522 21.16488,7.9455 23.4375,19.3125 2.59725,12.9909 -5.85285,25.6215 -18.84375,28.2186 L 248.25,332.4375 C 243.34326,323.1858 238.43955,313.9431 233.90625,304.5 220.30141,270.3276 209.11217,235.2969 210,198 c 0.42649,-40.0191 5.33721,-79.9689 6,-120 0,-18.2316 -6.81565,-34.842 -18,-47.5314 z M 78,116.4375 c 15.53124,18.2277 25.95462,40.9422 29.0625,65.9061 l 9.65625,80.7189 C 104.42306,269.1837 95.101779,280.4136 91.59375,294 L 78,294 78,116.4375 z m 240,0 0,177.5625 -13.59375,0 c -3.50802,-13.5864 -12.82931,-24.8163 -25.125,-30.9375 l 9.65625,-80.7189 C 292.04538,157.3797 302.46876,134.6652 318,116.4375 z M 198,278.7186 c 6.44687,21.0861 15.31655,41.1087 26.34375,59.7189 -10.48862,3.1863 -19.61713,9.384 -26.34375,17.7186 -6.72662,-8.3346 -15.85513,-14.5323 -26.34375,-17.7186 C 182.68345,319.8273 191.55313,299.8047 198,278.7186 z M 78,318 l 13.59375,0 c 4.285992,16.563 17.21706,29.6499 33.65625,34.2186 l 11.53125,2.625 C 133.6936,366.0369 132,377.8302 132,390 l -54,0 0,-72 z m 226.40625,0 13.59375,0 0,72 -54,0 c 0,-12.1698 -1.6936,-23.9631 -4.78125,-35.1564 L 270.75,352.2186 C 287.18919,347.6499 300.12027,334.563 304.40625,318 z m -144.1875,42.375 C 174.77772,362.4327 186,374.8761 186,390 l -30,0 c 0,-10.2879 1.52398,-20.2023 4.21875,-29.625 z m 75.5625,0 C 238.47602,369.7977 240,379.7121 240,390 l -30,0 c 0,-15.1239 11.22228,-27.5673 25.78125,-29.625 z M 158.71875,414 186,414 l 0,50.5311 C 172.7602,450.69 163.14236,433.3101 158.71875,414 z M 210,414 l 27.28125,0 C 232.85764,433.3101 223.2398,450.69 210,464.5311 L 210,414 z"
     id="path7306"
     style="fill:#ffd500" />
</svg>
