<svg width="425" height="740" viewBox="0 0 425 740" fill="none" xmlns="http://www.w3.org/2000/svg">
<path fill-rule="evenodd" clip-rule="evenodd" d="M49.9085 598.71C50.9935 598.959 50.5188 597.919 50.6544 597.354C56.4409 595.252 61.5945 590.89 67.607 589.556C68.0817 588.471 68.7146 588.494 68.7598 587.522C69.8448 587.522 70.6585 586.572 71.9243 587.205C67.8242 590.376 63.3903 593.089 58.7012 595.297C55.7854 596.699 52.6209 600.293 49.3886 599.614C48.6427 599.253 49.9989 598.484 49.9537 597.558C50.7674 597.716 50.0668 598.281 49.9085 598.71Z" fill="#E83A40"/>
<path fill-rule="evenodd" clip-rule="evenodd" d="M183.359 669.436C174.589 665.865 177.121 654.88 184.218 651.986C186.313 651.369 188.55 651.43 190.608 652.161C192.667 652.891 194.441 654.255 195.678 656.055C199.656 662.226 192.83 670.928 187.134 670.679C185.823 670.447 184.552 670.028 183.359 669.436ZM188.377 666.882C187.021 666.159 185.71 665.526 184.783 666.362C185.255 666.81 185.854 667.101 186.497 667.194C187.141 667.287 187.798 667.178 188.377 666.882ZM182.681 657.389L181.754 656.891C181.558 656.985 181.393 657.133 181.277 657.317C181.161 657.501 181.099 657.714 181.099 657.931C181.099 658.148 181.161 658.361 181.277 658.545C181.393 658.729 181.558 658.877 181.754 658.971C182.062 658.841 182.323 658.62 182.501 658.337C182.679 658.054 182.766 657.722 182.749 657.389L182.681 657.389Z" fill="#E83A40"/>
<path fill-rule="evenodd" clip-rule="evenodd" d="M336.226 724.792C336.972 723.797 336.588 725.967 337.56 726.148C337.813 725.998 338.02 725.781 338.156 725.52C338.293 725.26 338.354 724.966 338.333 724.672C338.312 724.379 338.209 724.097 338.037 723.859C337.864 723.62 337.628 723.435 337.356 723.323C339.933 721.288 344.137 718.621 348.342 720.271C354.309 722.532 355.349 728.928 352.546 733.992C350.466 735.89 348.974 738.083 346.262 738.806C342.894 739.71 336.271 737.45 334.96 733.946C334.101 731.686 335.345 729.787 334.96 727.414C335.91 726.08 336.271 726.08 336.226 724.792ZM343.685 734.376C343.143 733.359 341.041 732.681 340.453 733.743C341.674 734.489 342.826 735.009 343.685 734.376Z" fill="#E83A40"/>
<path fill-rule="evenodd" clip-rule="evenodd" d="M82.0957 581.893C82.2313 579.972 85.5541 579.836 86.1644 577.372C92.1543 574.411 97.4661 569.28 104.247 568.715C104.654 570.795 101.987 572.038 100.698 572.377C100.291 572.874 100.834 573.123 100.291 573.643C94.3016 576.513 88.1308 581.69 82.0957 581.893Z" fill="#E83A40"/>
<path fill-rule="evenodd" clip-rule="evenodd" d="M330.123 678.341C327.863 677.143 327.637 676.533 326.71 674.318C325.309 670.927 324.902 664.237 328.654 661.366C331.564 659.5 334.991 658.605 338.441 658.812C346.443 660.462 347.483 669.481 344.793 674.047C343.376 676.519 341.057 678.346 338.323 679.147C335.588 679.948 332.65 679.659 330.123 678.341ZM336.769 674.002C336.362 674.68 335.254 672.736 335.006 674.002C335.616 674.454 337.085 674.567 336.769 674.002ZM332.519 667.718C331.728 667.966 331.886 669.029 332.79 669.368C332.904 669.251 332.988 669.11 333.037 668.955C333.086 668.799 333.097 668.635 333.071 668.474C333.045 668.314 332.981 668.162 332.885 668.031C332.789 667.899 332.664 667.792 332.519 667.718Z" fill="#E83A40"/>
<path fill-rule="evenodd" clip-rule="evenodd" d="M296.783 621.901C297.778 617.855 300.535 612.543 304.423 613.651C304.423 615.911 304.084 618.33 304.084 620.635C303.338 621.833 302.253 621.562 302.095 623.099C301.177 623.317 300.221 623.323 299.3 623.115C298.38 622.908 297.519 622.492 296.783 621.901ZM299.45 617.72C299.043 618.285 298.976 618.737 299.608 619.008C300.015 618.443 300.083 617.991 299.45 617.72Z" fill="#E83A40"/>
<path fill-rule="evenodd" clip-rule="evenodd" d="M150.923 531.329C151.135 530.94 151.482 530.643 151.899 530.493C152.315 530.343 152.772 530.351 153.183 530.515C152.437 530.809 151.85 531.736 150.923 531.329Z" fill="#E83A40"/>
<path fill-rule="evenodd" clip-rule="evenodd" d="M240.84 567.946C239.664 565.143 237.766 563.041 237.359 560.329C236.093 551.468 244.976 543.806 250.107 538.223C253.068 537.884 255.803 537.093 259.148 540.076C259.148 543.715 261.409 546.676 264.98 549.344C266.658 553.459 267.121 557.97 266.314 562.341C260.889 570.501 252.3 576.852 240.84 567.946ZM253.475 564.624C252.948 564.138 252.28 563.834 251.568 563.757C250.856 563.68 250.138 563.833 249.519 564.194C249.725 564.516 250 564.787 250.325 564.988C250.649 565.189 251.015 565.314 251.394 565.356C251.774 565.397 252.158 565.352 252.518 565.226C252.878 565.099 253.205 564.893 253.475 564.624ZM248.299 551.536L247.169 550.903C246.536 551.401 246.558 551.83 246.49 552.621L247.395 553.118C247.686 552.975 247.928 552.748 248.089 552.466C248.25 552.184 248.323 551.86 248.299 551.536Z" fill="#E83A40"/>
<path fill-rule="evenodd" clip-rule="evenodd" d="M66.0021 407.892C66.861 405.089 70.342 405.631 72.9188 406.716C71.0653 408.705 68.5789 408.457 66.0021 407.892Z" fill="#E83A40"/>
<path fill-rule="evenodd" clip-rule="evenodd" d="M387.242 541.997C388.417 542.924 388.237 544.258 390.361 544.936C393.639 550.7 387.061 558.498 380.619 553.186C379.976 552.126 379.552 550.948 379.373 549.721C379.195 548.493 379.265 547.243 379.579 546.043C381.512 543.752 384.26 542.301 387.242 541.997ZM382.721 548.055L382.337 548.733C382.699 548.892 383.128 549.276 383.377 549.027C382.97 548.711 383.49 548.191 382.631 548.055L382.721 548.055Z" fill="#E83A40"/>
<path fill-rule="evenodd" clip-rule="evenodd" d="M58.0456 309.545C58.4445 310.268 58.6029 311.099 58.4977 311.918C57.4468 314.101 55.921 316.022 54.032 317.539C52.1431 319.057 49.9387 320.132 47.5803 320.688C45.2069 318.789 41.5225 317.591 39.4882 319.128C38.8327 320.394 39.6012 321.253 39.4882 322.383C33.9051 322.27 27.3275 321.095 22.739 317.139C20.738 315.057 19.048 312.697 17.7211 310.132C16.2066 307.646 13.7429 305.25 13.0648 303.012C11.7538 298.695 15.7998 294.378 17.3369 289.586C22.3774 286.851 28.6386 280.544 35.284 280.544C37.1088 280.768 38.9199 281.092 40.7088 281.516C44.4997 281.641 48.1862 282.789 51.3776 284.839C53.6066 286.121 55.614 287.754 57.3223 289.676C59.5444 292.866 61.1822 296.424 62.1594 300.187C62.2724 301.905 61.2101 303.735 61.6848 305.273C61.2327 306.9 60.2608 307.081 60.6902 308.618C59.8991 309.409 58.9045 309.296 58.0456 309.545ZM31.3058 302.311C31.3058 300.842 27.1241 298.446 26.3556 301.023C27.5762 302.289 30.3338 303.803 31.3058 302.311Z" fill="#E83A40"/>
<path fill-rule="evenodd" clip-rule="evenodd" d="M42.7657 321.299C43.5794 320.462 45.0261 320.01 45.8172 321.299C44.8679 321.931 43.602 322.519 42.7657 321.299Z" fill="#E83A40"/>
<path fill-rule="evenodd" clip-rule="evenodd" d="M139.802 284.251C139.802 279.323 136.547 275.729 139.147 271.638C140.438 269.891 142.003 268.365 143.781 267.117C145.453 265.829 147.465 264.111 149.002 263.162C153.523 260.449 161.592 260.607 165.841 261.896C168.897 262.726 171.73 264.224 174.137 266.281C174.883 267.072 175.81 269.061 176.849 270.485C178.951 273.446 181.37 277.266 180.036 281.267C179.245 283.776 176.94 284.658 177.188 286.827C169.187 302.288 148.844 297.202 139.802 284.251ZM161.66 292.094C161.101 291.382 160.304 290.896 159.415 290.726C158.526 290.556 157.605 290.712 156.823 291.167C157.546 292.795 160.71 293.722 161.705 292.094L161.66 292.094ZM150.358 278.826C150.2 277.718 147.42 276.159 146.809 277.718C146.583 279.007 149.612 280.476 150.358 278.826Z" fill="#E83A40"/>
<path fill-rule="evenodd" clip-rule="evenodd" d="M307.068 275.978C306.842 275.594 306.548 275.232 306.909 274.69C307.022 275.165 307.904 275.436 308.017 275.911C307.746 276.204 307.271 275.639 307.068 275.978Z" fill="#E83A40"/>
<path fill-rule="evenodd" clip-rule="evenodd" d="M304.039 270.712C298.026 267.615 294.998 262.575 291.178 257.489C288.691 254.076 286.431 251.974 286.499 248.267C288.239 248.267 289.844 250.391 291.584 251.431C293.46 255.952 297.778 258.438 300.377 262.371C302.05 264.88 302.298 268.316 304.039 270.712Z" fill="#E83A40"/>
<path fill-rule="evenodd" clip-rule="evenodd" d="M310.368 258.438C310.858 258.035 311.312 257.589 311.724 257.105C317.849 258.393 316.245 263.456 319.409 266.146C315.408 267.887 311.317 261.626 310.368 258.438Z" fill="#E83A40"/>
<path fill-rule="evenodd" clip-rule="evenodd" d="M262.878 233.461C263.018 233.192 263.251 232.982 263.533 232.87C263.815 232.758 264.128 232.751 264.415 232.851C264.663 233.087 264.817 233.406 264.846 233.747C264.875 234.089 264.778 234.429 264.573 234.704C264.121 234.817 263.262 233.958 262.878 233.461Z" fill="#E83A40"/>
<path fill-rule="evenodd" clip-rule="evenodd" d="M280.328 241.214C281.368 240.83 283.605 242.638 282.588 243.994C281.594 243.836 279.943 242.367 280.328 241.214Z" fill="#E83A40"/>
<path fill-rule="evenodd" clip-rule="evenodd" d="M220.293 191.849C220.971 191.012 222.825 191.668 223.412 192.685C222.667 194.877 220.519 192.888 220.293 191.849Z" fill="#E83A40"/>
<path fill-rule="evenodd" clip-rule="evenodd" d="M336.136 248.741C335.571 248.402 336.136 247.611 336.542 247.498C336.746 247.95 337.447 248.266 336.949 248.899C336.633 248.695 336.316 248.515 336.136 248.741Z" fill="#E83A40"/>
<path fill-rule="evenodd" clip-rule="evenodd" d="M182.025 157.423L183.178 155.389C186.478 154.959 190.773 159.661 194.48 163.3C195.892 164.453 196.878 166.044 197.283 167.821C194.502 169.109 192.265 165.899 190.23 164.43C187.021 162.125 183.336 160.542 182.025 157.423Z" fill="#E83A40"/>
<path fill-rule="evenodd" clip-rule="evenodd" d="M410.637 250.775C410.026 250.255 410.162 249.509 409.913 248.876C410.32 248.492 410.84 248.56 411.134 247.769C412.196 248.289 411.654 250.119 410.637 250.775Z" fill="#E83A40"/>
<path fill-rule="evenodd" clip-rule="evenodd" d="M243.303 141.465C243.407 140.576 243.155 139.682 242.603 138.979C244.366 138.979 246.4 142.075 247.508 143.499C246.355 144.11 245.36 142.279 243.303 141.465Z" fill="#E83A40"/>
<path fill-rule="evenodd" clip-rule="evenodd" d="M234.737 131.61C237.426 129.938 239.89 134.097 240.342 135.95C237.698 135.023 234.737 134.549 234.737 131.61Z" fill="#E83A40"/>
<path fill-rule="evenodd" clip-rule="evenodd" d="M206.98 105.164C207.884 105.413 207.793 105.955 208.087 106.385C207.612 107.086 205.985 106.001 206.98 105.164Z" fill="#E83A40"/>
<path fill-rule="evenodd" clip-rule="evenodd" d="M208.765 99.8971C210.461 98.8122 211.817 101.502 211.297 102.813C209.873 102.677 209.421 100.824 208.765 99.8971Z" fill="#E83A40"/>
<path fill-rule="evenodd" clip-rule="evenodd" d="M138.559 1.75314C144.73 -3.60387 148.166 4.6238 152.415 8.98626C155.183 11.4404 158.113 13.7059 161.185 15.7673C166.01 19.3256 170.423 23.4121 174.34 27.9506C176.397 30.8664 179.946 37.4892 176.94 41.377C173.933 45.2647 164.666 41.829 161.117 40.2468C152.709 36.4946 150.81 30.0301 148.527 23.8819C147.397 20.8531 145.544 18.4571 144.504 15.6543C139.328 11.9926 136.525 6.90672 138.559 1.75314ZM158.314 28.7416C158.156 29.0355 157.975 29.3294 157.817 29.6458C157.907 30.0192 158.083 30.3665 158.33 30.6607C158.577 30.9548 158.889 31.1877 159.241 31.3411C159.527 31.178 159.747 30.9195 159.861 30.6109C159.975 30.3022 159.978 29.9631 159.867 29.653C159.757 29.3429 159.54 29.0817 159.256 28.9151C158.973 28.7484 158.639 28.687 158.314 28.7416Z" fill="#E83A40"/>
<path fill-rule="evenodd" clip-rule="evenodd" d="M67.0645 612.273C68.3303 611.097 69.8673 608.769 71.3139 611.075C71.3139 610.894 70.0255 612.431 68.8727 613.335L67.0645 612.273Z" fill="#E83A40"/>
<path fill-rule="evenodd" clip-rule="evenodd" d="M178.748 642.628C179.358 644.12 176.827 646.855 175.764 646.335C174.25 645.567 176.442 641.475 178.748 642.628Z" fill="#E83A40"/>
<path fill-rule="evenodd" clip-rule="evenodd" d="M202.21 646.584C201.871 646.833 201.939 646.403 202.21 646.584C202.21 646.2 200.786 646.019 200.266 645.793C199.747 645.567 200.018 645.251 199.747 644.595C195.497 642.719 194.141 638.899 192.491 635.735C192.333 634.853 192.83 633.474 191.655 633.474C191.881 628.501 190.253 624.049 191.225 618.872C193.802 613.832 196.921 607.865 203.092 605.31C203.815 605.017 204.878 605.084 205.804 604.745C208.991 603.593 214.281 601.49 217.716 601.603C219.739 602.026 221.739 602.554 223.706 603.186C228.543 604.045 237.856 609.356 240.026 615.075C240.659 616.748 241.066 619.325 241.563 621.336C242.444 624.704 243.62 628.886 241.925 632.887C239.913 637.678 236.161 640.572 233.154 645.273C229.877 647.534 226.373 648.37 222.531 650.336C219.57 649.952 218.259 651.738 215.343 651.964C210.574 649.726 205.352 650.856 202.21 646.584Z" fill="#E83A40"/>
<path fill-rule="evenodd" clip-rule="evenodd" d="M293.822 590.053C294.139 588.358 297.032 585.871 296.715 583.272L297.393 583.656C298.049 582.006 300.807 578.819 301.326 575.112C296.444 573.877 291.685 572.197 287.109 570.094C286.544 569.733 287.29 569.009 286.725 568.67C285.617 568.354 284.464 567.585 283.583 568.399C282.204 566.636 282.837 564.76 281.775 562.59C284.487 557.685 282.701 551.944 287.245 548.644C287.855 545.728 285.459 543.671 283.877 541.365C282.95 542.066 282.588 541.637 281.435 541.365C278.429 540.981 275.513 542.654 272.869 540.122C273.004 538.223 268.145 536.483 267.738 535.443C267.304 535.137 266.889 534.805 266.495 534.449C265.771 533.409 265.884 532.482 265.003 531.804C263.908 530.986 262.572 530.557 261.205 530.583C260.324 530.131 261.205 530.335 261.364 529.77C258.931 525.892 255.722 522.559 251.938 519.982C252.413 519.259 251.328 518.988 251.667 518.332C245.247 515.484 243.756 504.544 236.183 506.601C235.935 506.782 234.624 506.42 234.918 506.194C228.385 508.455 221.717 512.975 214.055 512.975C210.189 511.303 209.918 508.658 208.562 506.194C208.878 505.358 209.331 504.454 208.313 503.934C213.783 496.249 223.209 498.261 231.233 497.718C231.663 496.407 233.177 496.362 233.81 495.277C234.443 494.192 233.516 494.621 233.652 493.988C233.787 493.356 235.098 492.904 234.443 492.045C233.787 491.186 233.2 490.801 233.155 489.536C232.635 489.298 232.168 488.961 231.78 488.541C231.392 488.122 231.091 487.631 230.894 487.094C228.157 485.344 224.957 484.456 221.709 484.544C218.461 484.633 215.314 485.695 212.676 487.592C209.082 487.592 206.189 490.327 203.408 493.423C198.651 496.433 193.562 498.883 188.241 500.724C185.054 500.182 182.161 501.967 179.2 502.487C176.556 502.939 173.73 502.487 171.244 503.369C167.672 504.68 165.141 507.392 161.185 508.477C159.196 512.071 153.975 512.998 152.144 517.519C151.737 518.106 151.059 517.745 150.607 518.129C150.403 519.463 148.866 519.621 149.092 520.389C145.046 520.389 140.684 525.362 136.321 526.628C135.071 528.052 133.531 529.192 131.804 529.971C130.077 530.751 128.203 531.152 126.308 531.149C124.432 529.702 121.471 529.792 120.07 527.351C119.482 526.289 120.341 524.48 118.962 524.028C120.002 523.667 119.685 521.768 120.273 521.18C122.011 518.974 124.024 516.999 126.263 515.304C128.275 513.879 131.19 513.405 133.541 511.936C138.414 508.854 143.532 506.177 148.844 503.934C150.042 503.437 152.234 503.55 152.415 502.352C153.563 502.207 154.658 501.786 155.607 501.125C156.556 500.463 157.33 499.581 157.862 498.554C158.767 499.165 158.428 497.899 158.721 497.537C158.88 497.673 158.721 497.899 159.038 498.012C159.456 497.328 159.697 496.552 159.739 495.752C160.236 495.164 159.897 496.294 160.304 496.362C161.298 494.215 165.028 491.321 167.22 488.315C169.775 487.773 173.459 482.935 172.623 480.291C171.651 479.974 171.108 481.195 170.046 480.63C170.913 479.989 171.596 479.132 172.025 478.143C172.455 477.154 172.616 476.069 172.492 474.999C172.368 473.928 171.964 472.908 171.32 472.044C170.676 471.179 169.816 470.5 168.825 470.074C165.819 468.65 162.044 469.577 159.558 469.034C159.219 467.791 156.823 466.977 156.597 465.282C156.597 462.118 159.332 458.614 160.801 455.698C161.298 455.111 160.959 456.241 161.343 456.309C167.469 448.058 174.205 442.95 182.952 441.3C189.168 431.49 199.95 412.096 188.422 404.027C182.998 400.252 172.419 399.325 167.017 400.636C163.649 399.8 160.846 400.885 157.591 400.41C146.719 402.06 136.819 407.191 125.833 408.502C125.044 408.014 124.157 407.707 123.234 407.601C122.312 407.496 121.378 407.595 120.499 407.892C120.25 407.711 120.07 407.711 119.911 407.892C119.391 407.711 119.414 407.395 119.143 407.146C114.487 404.547 110.101 406.784 105.965 407.146C102.24 407.256 98.5118 407.15 94.7989 406.83C92.5386 406.83 90.2782 407.485 88.1761 406.378C87.7241 406.174 87.5884 407.078 87.2042 407.033C87.2042 406.242 87.0459 406.626 86.187 406.174C87.3398 402.942 91.0242 403.484 93.4653 402.806C101.006 400.538 108.705 398.83 116.498 397.698C120.748 394.918 125.314 393.177 129.563 390.42C142.424 389.063 155.602 388.792 168.328 386.871C170.995 384.769 175.267 383.254 177.708 380.813C181.687 376.812 176.827 372.495 174.227 368.969C174.815 367.251 173.301 366.324 172.645 365.398C175.719 363.725 178.093 363.273 180.263 364.606C182.794 366.189 186.388 370.461 189.53 368.336C192.175 366.528 193.395 361.555 192.92 358.594C192.355 355.068 189.1 351.293 186.411 348.942C185.348 348.038 186.049 346.682 184.444 346.049C184.037 342.568 178.522 339.268 174.928 335.9C172.542 334.361 169.851 333.358 167.04 332.962C164.779 331.877 161.931 330.046 159.196 328.825C158.805 328.858 158.412 328.858 158.021 328.825C156.529 327.944 155.421 326.022 154.133 325.141C152.545 324.564 151.146 323.564 150.087 322.248C144.074 320.349 135.982 314.562 130.286 312.302C130.06 311.895 130.535 311.986 130.58 311.262C127.732 309.974 125.675 311.511 123.121 311.262C120.861 313.523 117.561 317.569 114.08 318.97C109.197 320.891 99.0032 320.846 92.7646 318.608C89.6154 317.316 86.6752 315.564 84.0397 313.41C80.6492 310.697 80.1293 305.521 79.8355 301.769C79.3959 299.842 79.4976 297.832 80.1293 295.96C81.5933 293.558 83.2647 291.289 85.1247 289.179C86.6105 286.481 88.501 284.026 90.7303 281.9C91.5214 281.29 92.9907 280.702 94.2113 279.957C100.111 276.272 109.582 274.419 116.611 277.335C123.641 280.25 123.731 283.483 125.653 288.975C127.107 292.225 127.773 295.772 127.597 299.328C134.943 303.848 141.498 309.567 149.047 313.206C151.308 314.336 155.625 315.851 157.049 318.631C161.389 320.168 163.649 322.496 167.966 324.169C168.283 324.44 168.215 324.711 168.509 325.367C174.589 328.486 180.918 331.04 183.856 335.222C184.083 334.77 184.422 335.222 185.145 335.064C188.558 337.934 193.011 339.132 195.452 336.375C196.153 336.375 197.012 336.917 197.464 336.013C197.102 334.273 197.938 331.673 197.238 331.108C198.594 331.334 197.803 329.594 199.385 329.933C200.063 329.096 198.752 328.825 199.249 328.057C199.95 328.283 200.651 328.531 201.035 327.559C200.832 325.57 198.775 324.101 197.667 322.383C197.832 321.757 197.827 321.097 197.652 320.474C197.478 319.85 197.139 319.284 196.673 318.834C196.966 318.066 197.803 318.676 197.554 317.84C197.306 317.004 196.831 318.179 196.153 317.636C196.74 313.749 196.74 311.94 197.215 307.781C197.802 307.696 198.357 307.46 198.824 307.095C199.292 306.731 199.657 306.25 199.882 305.702C204.019 305.544 206.957 305.408 211.003 305.092C213.679 302.525 216.012 299.623 217.942 296.457C222.169 288.297 211.885 284.522 208.2 279.301C208.63 279.934 207.726 278.284 207.68 278.126C207.206 276.702 208.2 275.458 207.296 274.012C208.946 272.204 209.873 269.491 212.427 269.152C216.631 268.745 222.599 274.848 222.712 277.922C224.791 279.504 226.26 282.692 229.154 284.545C233.109 287.077 240.094 286.692 241.97 284.545C243.19 283.189 242.784 281.222 243.53 279.143C245.925 279.143 244.999 275.142 242.784 275.142C244.117 271.028 240.885 268.158 241.812 264.157C241.631 263.456 241.021 263.614 240.455 263.388C241.608 262.597 239.71 261.128 240.975 259.794C240.704 259.681 240.614 259.523 240.659 259.32C239.77 257.425 238.455 255.762 236.816 254.46C233.042 251.454 231.55 246.865 228.611 243.565C228.611 239.044 222.056 237.462 217.31 233.913C216.857 233.552 216.79 232.896 216.338 232.467C214.077 230.319 211.161 229.302 209.557 227.697C207.685 225.54 206.373 222.955 205.737 220.17C206.596 220.487 207.5 221.007 207.997 220.283C208.63 219.018 206.731 218.453 205.556 217.707C206.709 211.559 211.659 209.705 216.654 210.202C232.68 216.622 236.387 227.63 243.643 237.078C243.417 237.643 244.185 237.937 243.643 238.592C246.513 241.101 246.536 244.401 249.406 246.933C251.373 254.279 256.346 260.789 259.804 267.728C262.358 270.508 267.964 271.661 269.117 275.052C272.937 276.973 274.022 281.833 278.158 283.777C283.289 286.173 289.46 287.529 295.246 289.518C300.377 291.281 309.418 291.643 311.543 285.562C311.701 285.042 311.317 284.658 311.362 284.274C311.362 283.415 312.628 282.759 311.362 282.013C312.764 281.222 315.16 282.013 317.013 280.996C318.828 278.99 319.862 276.4 319.929 273.695C320.472 274.487 319.613 275.684 320.856 276.295C322.415 275.933 322.574 272.972 320.698 272.317C319.545 272.113 320.969 274.125 319.839 273.334C320.291 271.684 321.285 269.875 319.703 268.813C319.974 268.384 320.562 269.062 320.788 268.497C320.607 268.135 318.867 268.022 318.121 267.909C318.121 266.734 321.263 267.457 321.263 268.18C323.41 266.96 325.557 265.762 327.637 264.292C329.106 258.37 336.226 254.595 339.187 249.6C341.448 249.6 342.962 247.611 344.725 246.142C345.584 242.412 341.041 242.571 338.283 242.209C331.751 241.395 322.642 238.457 318.98 231.924C318.319 230.064 317.902 228.127 317.737 226.16C316.991 223.245 315.047 221.64 313.216 218.837C312.673 218.679 312.108 219.063 311.95 218.407C317.985 220.012 316.132 209.886 313.397 207.874C313.174 204.424 313.235 200.962 313.578 197.522C314.286 195.157 314.561 192.684 314.391 190.221C313.668 185.949 311.408 183.44 312.425 178.332C313.442 173.223 314.097 168.431 314.685 164.114C314.798 163.391 315.273 162.577 315.386 161.854C315.747 159.141 315.047 156.158 315.567 153.581C316.154 150.642 318.46 147.907 318.211 144.539C315.233 136.126 311.377 128.049 306.706 120.444C310.187 115.923 300.332 111.064 303.948 107.831C303.948 105.413 301.688 103.605 301.372 101.276C298.501 99.649 300.106 95.5125 297.913 93.0714C294.704 92.868 294.297 90.4494 293.867 88.0986C288.985 85.6349 287.629 80.6847 287.335 76.3448C288.246 75.2852 289.077 74.1595 289.821 72.9769C297.642 72.4797 299.021 79.0346 302.231 83.8492C304.672 87.5335 308.334 91.3987 309.599 95.1509C309.984 96.3263 309.848 97.8407 310.232 98.7901C312.99 105.571 319.274 108.894 321.534 115.313C326.055 123.857 331.66 132.108 333.062 141.533C335.186 145.398 336.814 149.399 335.458 154.236C335.141 160.023 339.187 164.837 340.227 170.669C341.744 172.233 342.712 174.248 342.985 176.41C343.595 176.817 343.685 177.36 344.318 177.766C344.522 182.468 347.211 186.514 349.63 190.605C353.631 193.001 357.134 197.522 361.452 201.455C364.028 203.715 367.351 205.614 369.747 207.919C371.239 209.343 373.861 212.757 376.166 212.44C378.427 216.373 382.744 213.887 385.705 215.13C387.762 215.989 389.118 218.385 391.198 219.651C393.82 221.323 396.758 221.323 399.516 223.425C400.397 224.33 400.058 225.573 401.46 226.341C403.539 232.286 394.679 238.728 396.939 245.577C393.096 249.736 394.679 255.251 400.036 258.076C400.033 259.664 400.561 261.207 401.535 262.46C402.51 263.714 403.876 264.605 405.415 264.993C406.636 265.355 404.963 266.508 405.777 266.982C406.591 267.457 406.93 266.982 407.427 266.711C407.427 268.09 408.964 268.677 409.687 268.971C411.111 270.26 411.541 271.232 413.394 271.955C412.581 272.633 414.389 272.565 413.553 273.243C417.779 275.255 419.565 279.595 422.594 282.556C422.786 284.225 423.592 285.764 424.854 286.873C424.875 289.561 425.658 292.187 427.115 294.445C425.487 295.756 427.634 297.881 425.962 298.582C426.527 299.079 426.369 299.757 427.182 300.164C426.158 302.907 425.923 305.883 426.504 308.753C426.029 309.224 425.694 309.819 425.539 310.47C425.383 311.121 425.412 311.802 425.623 312.438C429.284 314.698 429.646 319.603 433.059 322.609C434.736 323.626 436.712 324.035 438.654 323.767C440.597 323.5 442.388 322.572 443.728 321.14C444.937 319.984 445.919 318.612 446.621 317.094C447.119 315.896 446.621 314.495 447.051 313.161C448.136 309.07 452.272 306.855 453.199 304.368C455.061 303.634 456.86 302.749 458.579 301.724C459.419 299.667 460.537 297.736 461.901 295.982C463.144 295.463 464.546 295.395 465.608 294.197C465.97 293.315 464.975 292.841 465.608 291.936C467.53 291.823 467.01 294.197 467.53 295.395C468.643 297.134 469.267 299.14 469.338 301.204C468.411 303.306 468.208 304.662 467.349 306.357C465.922 306.406 464.518 306.729 463.212 307.307C460.545 312.37 461.811 319.377 468.162 315.489C469.654 314.585 471.191 313.229 473 312.234C474.808 311.24 476.729 310.697 477.882 309.974C479.035 309.251 479.306 307.827 480.346 307.194C480.73 306.945 481.34 307.194 481.657 307.013C485.431 304.549 490.992 299.305 494.224 304.753C500.35 307.601 495.513 313.206 491.964 316.642C489.858 319.087 487.593 321.39 485.183 323.536C484.686 323.852 483.759 323.785 483.058 324.124C482.357 324.463 481.521 325.593 480.798 325.887C480.074 326.181 479.509 325.638 479.057 325.887C477.627 326.601 476.259 327.433 474.966 328.373C474.966 328.644 475.395 329.051 474.966 328.938C477.362 331.018 483.827 332.758 487.33 335.719C487.419 336.036 487.427 336.37 487.352 336.69C487.276 337.01 487.121 337.306 486.901 337.55C493.297 342.274 503.65 347.496 510.905 346.908C511.516 345.868 513.437 345.913 513.347 344.648C519.653 343.54 523.948 339.494 530.209 338.613C532.791 336.603 535.811 335.232 539.024 334.612C540.801 332.656 542.984 331.112 545.421 330.091C545.737 329.119 546.302 329.164 546.687 328.396C547.229 328.961 547.297 329.119 547.93 328.803C547.93 328.464 547.478 328.305 547.161 328.079C547.636 323.694 552.383 319.897 556.203 317.908C558.463 316.778 560.723 314.879 562.441 316.348C565.38 318.947 559.525 321.818 559.48 324.259C556.79 328.373 552.179 329.481 548.179 330.679C543.658 337.121 536.877 336.759 532.085 342.229C527.835 343.314 525.304 346.75 521.71 349.53C520.105 352.491 518.365 352.785 516.895 354.887C516.814 356.6 517.352 358.285 518.41 359.634C524.807 362.369 530.57 363.928 533.283 369.805C534.015 371.766 534.582 373.785 534.978 375.84C535.453 378.101 534.797 380.203 535.114 382.486C533.647 385.176 532.783 388.153 532.582 391.211C532.74 391.821 533.667 391.392 533.102 392.409C536.729 395.275 540.682 397.702 544.878 399.642C548.111 401.314 551.185 404.162 553.468 405.067C556.497 406.445 560.475 405.745 564.091 406.875C566.562 407.859 569.091 408.689 571.663 409.361C574.896 409.949 577.676 409.678 580.298 411.622C581.134 413.882 580.095 415.781 577.902 417.453C574.783 418.696 571.415 416.142 568.861 414.786C565.063 412.707 559.638 413.679 555.728 411.576C555.321 411.35 555.412 411.011 554.96 410.83C552.835 410.062 549.603 410.311 546.868 409.271C543.771 408.095 541.126 406.016 538.459 405.134C534.955 403.715 531.05 403.642 527.496 404.931C525.937 408.593 521.506 410.378 519.45 412.345C516.014 412.187 513.844 416.459 510.408 416.572C508.916 418.516 506.814 418.357 505.526 420.979C504.373 421.861 503.062 422.177 502.113 423.85C501.796 424.076 501.231 423.398 500.96 423.85C500.372 425.319 500.96 427.941 498.7 427.715C499.039 428.868 498.428 429.139 498.089 430.36C497.75 431.58 499.581 431.852 498.293 433.163C500.282 437.209 505.413 440.351 505.774 444.849C503.831 451.155 498.022 451.2 494.156 448.465C491.896 448.849 487.714 448.465 487.375 451.517C482.086 451.358 478.492 454.839 473.565 454.794C473.452 455.811 474.198 454.455 474.604 455.065C472.841 455.585 473.497 458.072 471.824 459.586C471.553 462.818 471.96 467.565 468.547 469.102C466.083 470.232 462.534 467.972 460.455 470.232C459.505 473.804 461.246 476.629 462.715 479.545C462.308 479.545 462.014 480.2 461.72 480.765C462.111 481.51 462.687 482.14 463.393 482.596C463.167 483.455 462.534 482.755 462.195 483.139C462.702 483.769 463.342 484.28 464.068 484.635C464.795 484.991 465.591 485.182 466.399 485.196C466.399 485.942 466.264 487.275 467.371 486.642C466.865 487.689 466.73 488.877 466.987 490.01C468.072 490.711 468.773 491.208 468.84 492.542C468.682 493.356 468.095 492.677 467.665 492.542C467.665 493.107 469.428 495.39 470.174 493.943C470.174 495.865 472.66 497.311 472.909 499.685C471.756 500.204 470.491 501.176 470.332 500.001C468.072 500.137 469.18 502.668 468.999 503.437C468.479 502.691 468.637 502.646 467.529 502.329C467.936 501.922 468.592 501.945 468.411 501.312C467.529 500.996 467.303 502.42 467.145 503.007C466.942 502.194 466.218 503.007 465.631 503.007C464.207 505.268 458.646 509.02 460.161 512.049C458.737 512.523 459.89 514.603 457.9 515.213C458.33 515.417 457.9 516.456 458.352 517.473C457.878 517.926 456.748 517.948 455.753 518.378C456.612 519.282 455.753 519.508 456.476 520.276C455.64 519.191 455.007 522.74 453.696 522.017C453.823 522.514 453.823 523.034 453.696 523.531C452.792 522.672 451.707 524.028 450.961 524.684C451.21 524.684 451.481 524.684 451.662 524.481C451.865 525.452 449.921 524.481 449.402 524.955C449.243 525.927 448.927 525.769 448.746 526.673C448.204 526.492 448.226 526.176 447.955 525.927C447.503 526.266 447.548 527.148 447.073 527.509C446.727 527.635 446.372 527.733 446.011 527.803C445.175 528.933 445.107 530.629 444.045 531.781C442.191 533.861 439.931 534.449 437.648 536.302C431.793 535.737 427.115 538.743 421.441 536.438C421.916 537.297 420.56 536.438 421.057 537.116C420.107 537.116 419 536.573 418.051 536.619C417.173 537.488 416.098 538.134 414.917 538.5C413.737 538.866 412.486 538.941 411.27 538.721C410.478 538.721 411.609 539.693 411.563 539.783C410.524 540.529 408.783 539.783 407.653 538.766C407.088 539.06 407.178 539.76 406.839 538.608C405.259 539.203 403.643 539.701 402.002 540.099C401.505 539.399 401.121 539.851 400.759 539.105C396.736 538.608 392.825 538.517 388.711 537.704C387.513 536.92 386.128 536.469 384.698 536.398C383.268 536.326 381.845 536.636 380.574 537.297C379.421 536.393 378.811 537.297 377.794 536.935C377.794 537.41 377.636 537.771 377.274 537.839C376.912 537.907 376.89 536.438 375.375 536.46C375.338 536.001 375.484 535.546 375.782 535.195C369.679 531.284 363.87 537.455 359.666 540.461C359.666 542.111 359.123 542.721 358.875 544.507C355.236 544.959 353.699 551.017 350.082 552.69C343.843 559.222 350.67 562.906 354.603 566.545C354.258 567.557 354.259 568.655 354.607 569.666C354.955 570.677 355.629 571.543 356.524 572.129C357.27 575.949 359.666 578.571 361.203 581.328C361.232 581.204 361.228 581.074 361.193 580.951C361.157 580.829 361.091 580.717 361 580.627C362.017 581.871 361.18 585.284 363.508 586.798C363.689 588.946 362.582 591.048 363.757 593.24C362.582 593.737 362.559 596.088 362.989 597.264C362.179 598.498 361.632 599.884 361.379 601.338C361.126 602.792 361.174 604.283 361.519 605.717C360.977 606.418 360.028 607.684 360.344 608.339C354.693 610.012 349.856 614.6 344.205 616.273C343.143 618.307 342.736 619.573 341.199 620.545C340.001 620.003 339.481 618.285 338.441 617.494C329.016 610.328 322.619 623.574 314.504 622.851C313.713 621.834 312.402 620.975 311.995 619.347C311.995 618.895 312.38 618.42 312.176 617.946C311.498 616.296 309.215 613.583 308.085 611.459C307.588 610.554 307.633 609.198 306.254 608.339C304.875 607.48 303.768 608.339 302.298 607.91C300.038 609.085 298.524 612.137 296.241 612.837C296.355 612.548 296.555 612.3 296.813 612.127C297.071 611.953 297.376 611.862 297.687 611.865C296.444 609.605 298.298 606.87 299.089 604.587C297.868 602.327 297.213 599.275 293.89 598.981C290.567 598.688 284.577 604.045 281.684 608.023C280.916 609.04 280.712 610.532 279.989 611.549C279.605 612.091 278.836 612.295 278.407 612.747C276.011 615.392 274.18 618.646 271.761 619.777C270.45 617.064 272.462 614.058 273.366 611.097C273.858 611.256 274.388 611.256 274.88 611.097C275.569 610.159 275.984 609.047 276.078 607.887C280.68 604.464 284.834 600.478 288.443 596.02C288.376 594.329 288.854 592.661 289.806 591.261C290.758 589.862 292.134 588.805 293.732 588.245C293.754 588.471 292.941 589.488 293.822 590.053ZM314.482 219.831C314.73 219.56 315.069 219.56 315.228 219.04C314.776 218.86 314.866 218.498 314.459 218.294C314.03 218.927 313.713 219.515 314.482 219.831ZM318.822 144.268C319.164 144.016 319.428 143.673 319.584 143.278C319.74 142.883 319.781 142.451 319.703 142.034C319.625 141.616 319.431 141.229 319.144 140.916C318.856 140.604 318.486 140.379 318.076 140.267C317.723 140.919 317.604 141.672 317.74 142.4C317.876 143.128 318.258 143.788 318.822 144.268ZM304.31 606.418C303.248 606.192 301.892 605.062 301.191 606.147C302.298 606.463 303.519 607.232 304.31 606.418ZM296.941 597.783C296.263 596.97 294.139 596.201 293.347 597.241C294.45 597.821 295.716 598.012 296.941 597.783ZM342.487 617.177C341.199 616.68 339.752 615.572 338.893 616.635C339.422 616.969 340.015 617.19 340.633 617.283C341.252 617.376 341.883 617.34 342.487 617.177ZM300.671 569.484C296.444 567.088 292.828 566.907 289.754 568.693C293.506 569.484 297.439 570.546 300.671 569.484ZM169.39 468.899C168.26 468.74 166.972 467.972 166.135 468.899C167.266 468.944 168.486 469.486 169.39 468.831L169.39 468.899ZM159.965 459.111C159.445 458.456 158.45 459.518 158.88 459.993C159.354 459.767 160.145 459.948 159.965 459.044L159.965 459.111ZM200.99 426.63C200.106 426.287 199.152 426.163 198.21 426.269C197.68 426.836 197.272 427.505 197.012 428.236C196.751 428.967 196.644 429.744 196.695 430.518C199.114 432.643 200.673 428.913 200.99 426.562L200.99 426.63ZM183.043 398.014C179.878 396.07 176.126 397.833 172.6 396.907C172.6 398.014 170.792 397.653 171.854 398.263C175.651 398.353 179.652 399.257 183.043 397.946L183.043 398.014ZM180.014 386.441C182.952 385.447 184.828 382.169 186.546 379.073C185.145 377.965 184.987 375.592 182.998 375.275C182.319 377.31 184.173 378.643 183.563 380.677C181.867 381.333 179.2 384.136 180.014 386.396L180.014 386.441ZM198.571 369.105C197.825 368.472 197.396 368.946 196.65 368.313C196.003 368.918 195.487 369.648 195.136 370.461C195.462 371.268 195.991 371.976 196.673 372.518C197.274 372.18 197.769 371.682 198.104 371.079C198.44 370.477 198.601 369.793 198.571 369.105ZM106.824 312.935C106.125 312.207 105.181 311.764 104.174 311.693C103.168 311.622 102.17 311.928 101.377 312.551C101.707 312.956 102.116 313.288 102.58 313.529C103.044 313.769 103.552 313.911 104.074 313.947C104.595 313.983 105.118 313.912 105.61 313.738C106.103 313.564 106.554 313.291 106.937 312.935L106.824 312.935ZM376.754 459.292C375.601 458.998 374.245 458.004 373.409 458.885C374.629 459.36 375.895 460.083 376.754 459.292ZM97.2175 299.983C96.336 298.898 93.9626 297.723 93.3749 299.983C94.3243 300.955 96.5168 302.018 97.2175 299.983ZM377.794 457.484C376.709 457.077 375.534 456.286 374.788 456.987C375.749 457.34 376.769 457.509 377.794 457.484ZM373.16 454.568L374.064 455.088C374.72 454.206 373.477 453.596 373.16 454.568ZM372.188 445.662L371.691 446.566L372.595 447.086C373.213 446.408 373.077 445.934 372.188 445.662ZM484.663 382.373C483.442 382.373 481.837 380.926 480.956 382.056C482.222 382.26 483.827 383.684 484.663 382.35L484.663 382.373ZM345.109 246.752C344.824 246.804 344.563 246.947 344.366 247.161C344.169 247.374 344.048 247.646 344.019 247.935C343.991 248.224 344.058 248.514 344.21 248.762C344.362 249.009 344.59 249.201 344.861 249.306C345.086 249.174 345.277 248.99 345.418 248.769C345.558 248.548 345.644 248.297 345.668 248.036C345.693 247.776 345.655 247.513 345.557 247.27C345.46 247.027 345.307 246.811 345.109 246.639L345.109 246.752ZM345.109 238.931C341.109 236.241 335.842 234.908 332.61 237.259C337.017 238.931 341.38 240.152 345.019 238.818L345.109 238.931ZM316.742 185.881C318.709 189.294 318.256 193.883 317.285 198.155C317.714 199.149 318.618 202.11 320.178 200.98C321.082 199.149 319.793 197.341 319.771 195.352C319.658 190.131 320.539 184.457 315.092 181.383C313.284 183.304 315.883 184.457 316.652 185.768L316.742 185.881ZM550.552 325.367C550.213 325.751 549.58 325.05 549.354 325.887C549.896 326.565 551.004 325.955 550.552 325.367Z" fill="#E83A40"/>
<path fill-rule="evenodd" clip-rule="evenodd" d="M291.946 616.182C293.144 616.702 293.234 613.357 295.201 614.125C294.884 615.549 294.432 618.849 292.421 618.646C291.426 618.035 292.149 616.928 291.72 616.159C291.901 615.82 292.014 616.046 291.946 616.182Z" fill="#E83A40"/>
<path fill-rule="evenodd" clip-rule="evenodd" d="M169.548 517.338C166.678 520.728 161.343 521.203 157.388 523.034C156.687 522.853 158.156 522.039 157.388 521.858C158.608 521.655 160.01 521.858 160.936 520.864C161.298 520.525 160.936 519.485 161.253 519.259C163.4 517.202 166.429 517.88 169.548 517.338Z" fill="#E83A40"/>
<path fill-rule="evenodd" clip-rule="evenodd" d="M42.291 411.26C38.2223 412.187 33.6112 411.757 29.1584 412.819C24.7055 413.882 20.117 416.481 14.986 416.187C13.3902 415.798 11.7758 415.488 10.1489 415.261C7.12008 415.441 2.82538 419.374 -4.94229e-05 415.261C2.07947 411.011 6.78096 414.447 10.0133 413.43C11.5729 412.933 13.2004 412.141 14.873 411.689C22.4226 409.61 30.8536 412.661 38.358 410.288C40.3471 411.26 40.3471 410.017 42.291 411.26ZM16.1388 414.153C16.5909 413.294 16.1388 413.407 15.4833 413.181L15.099 413.882C15.4833 414.176 15.7546 413.904 16.1388 414.153Z" fill="#E83A40"/>
<path fill-rule="evenodd" clip-rule="evenodd" d="M182.749 504.703C182.319 503.685 184.376 502.623 185.416 502.623C184.58 504.251 182.975 503.437 182.749 504.703Z" fill="#E83A40"/>
<path fill-rule="evenodd" clip-rule="evenodd" d="M310.187 278.352C309.803 278.669 309.757 278.149 309.509 277.968C309.26 277.787 309.192 278.149 309.034 278.307C308.582 277.855 308.853 277.199 308.401 276.747C308.695 276.612 309.667 277.9 310.187 278.352Z" fill="#E83A40"/>
<path fill-rule="evenodd" clip-rule="evenodd" d="M305.418 273.583C304.74 273.017 304.649 272.045 303.994 271.865C303.338 271.684 304.966 271.096 304.265 270.825C304.581 270.938 306.593 273.04 305.418 273.583Z" fill="#E83A40"/>
<path fill-rule="evenodd" clip-rule="evenodd" d="M276.101 234.953C276.417 234.682 276.327 234.953 276.101 235.314C273.275 232.376 269.32 229.212 266.562 225.753C267.24 225.211 267.353 226.861 267.941 225.934C268.212 225.595 267.941 225.414 268.099 225.12C267.399 224.42 267.263 225.776 266.585 225.12C268.416 223.99 265.59 222.973 266.585 221.504C270.703 225.236 273.951 229.827 276.101 234.953Z" fill="#E83A40"/>
<path fill-rule="evenodd" clip-rule="evenodd" d="M286.724 188.956C277.536 182.153 270.035 173.329 264.799 163.165C273.392 170.582 280.787 179.281 286.724 188.956Z" fill="#E83A40"/>
<path fill-rule="evenodd" clip-rule="evenodd" d="M263.194 161.333C260.278 160.746 257.973 157.016 256.413 154.824C251.599 151.388 250.785 147.003 246.92 144.087C252.639 147.071 259.374 155.411 263.194 161.333Z" fill="#E83A40"/>
<path fill-rule="evenodd" clip-rule="evenodd" d="M224.158 118.726C221.898 118.545 222.327 115.991 220.587 115.516C220.768 115.29 221.107 115.516 221.288 115.313C220.519 114.997 219.163 113.753 219.208 112.646C221.159 114.408 222.828 116.458 224.158 118.726Z" fill="#E83A40"/>
<path fill-rule="evenodd" clip-rule="evenodd" d="M349.268 134.232C353.97 138.527 352.704 144.494 353.97 149.738C352.003 149.851 352.229 146.573 351.099 144.245C349.63 141.171 346.782 138.685 347.731 134.865C348.161 135.068 348.296 134.164 348.681 134.209C349.065 134.255 349.11 134.39 349.268 134.232Z" fill="#E83A40"/>
<path fill-rule="evenodd" clip-rule="evenodd" d="M255.306 640.369C255.08 637.295 259.058 633.226 261.861 631.825C261.703 635.419 258.945 640.979 255.306 640.369Z" fill="#E83A40"/>
</svg>
