<svg width="56" height="56" viewBox="0 0 56 56" fill="none" xmlns="http://www.w3.org/2000/svg">
<path d="M19.8756 40.1199C19.7965 40.0974 19.7156 40.0847 19.6341 40.0803C20.8322 38.8211 21.5701 37.12 21.5701 35.2488V29.4945C21.5701 29.4419 21.565 29.3906 21.5579 29.34C21.5651 29.2361 21.5701 29.1316 21.5701 29.0259V25.3853C21.5701 24.7812 21.0804 24.2915 20.4763 24.2915H13.1402C10.0509 24.2915 7.53768 26.8048 7.53768 29.894V35.2488C7.53768 37.12 8.27542 38.8211 9.47362 40.0803C9.39225 40.0847 9.31131 40.0974 9.23234 40.1199C4.06361 40.5879 0 44.9445 0 50.233V54.9059C0 55.51 0.489672 55.9996 1.09375 55.9996H28.0139C28.618 55.9996 29.1076 55.51 29.1076 54.9059V50.233C29.1076 44.9446 25.0442 40.5881 19.8756 40.1199ZM9.72518 31.281V29.8939C9.72518 28.0109 11.2572 26.4789 13.1402 26.4789H19.3826V29.0258C19.3826 30.308 18.3394 31.3511 17.0572 31.3511H9.72518V31.281ZM9.72518 33.5386H17.0572C17.9073 33.5386 18.703 33.3021 19.3826 32.8918V35.2487C19.3826 37.9112 17.2164 40.0774 14.5539 40.0774C11.8914 40.0774 9.72518 37.9112 9.72518 35.2487V33.5386ZM16.9344 42.265L14.5539 44.6456L12.1733 42.265H16.9344ZM26.9202 53.8121H2.1875V51.6246H6.72656C7.33064 51.6246 7.82031 51.135 7.82031 50.5309C7.82031 49.9268 7.33064 49.4371 6.72656 49.4371H2.22742C2.59481 45.7495 5.48745 42.7962 9.14593 42.3312L13.7805 46.9657C13.9856 47.1708 14.2638 47.2861 14.5539 47.2861C14.8439 47.2861 15.1222 47.1708 15.3273 46.9657L19.9618 42.3312C23.8801 42.8291 26.9202 46.1816 26.9202 50.233V53.8121Z" fill="white"/>
<path d="M46.7683 15.8285C46.6892 15.806 46.6081 15.7933 46.5266 15.7889C47.7246 14.5297 48.4624 12.8286 48.4624 10.9574V5.20297C48.4624 5.15036 48.4573 5.09906 48.4502 5.04853C48.4575 4.94462 48.4624 4.84006 48.4624 4.7344V1.09375C48.4624 0.489672 47.9727 0 47.3686 0H40.0325C36.9432 0 34.43 2.51333 34.43 5.60251V10.9573C34.43 12.8285 35.1677 14.5296 36.3658 15.7888C36.2844 15.7932 36.2032 15.8059 36.1241 15.8284C30.9556 16.2966 26.8923 20.6532 26.8923 25.9414V30.6143C26.8923 31.2183 27.382 31.708 27.9861 31.708H36.7864C37.3905 31.708 37.8801 31.2183 37.8801 30.6143C37.8801 30.0102 37.3905 29.5205 36.7864 29.5205H29.0798V25.9415C29.0798 21.8902 32.1199 18.5377 36.0382 18.0398L40.6727 22.6743C40.8863 22.8879 41.1662 22.9947 41.4461 22.9947C41.726 22.9947 42.006 22.8879 42.2195 22.6743L46.854 18.0398C50.7725 18.5378 53.8126 21.8902 53.8126 25.9415V29.5206H45.7552C45.1512 29.5206 44.6615 30.0103 44.6615 30.6144C44.6615 31.2185 45.1512 31.7081 45.7552 31.7081H54.9063C55.5104 31.7081 56.0001 31.2185 56.0001 30.6144V25.9415C56.0001 20.6533 51.9367 16.2968 46.7683 15.8285ZM41.4463 20.3541L39.0658 17.9736H43.8269L41.4463 20.3541ZM46.275 10.9573C46.275 13.6198 44.1088 15.786 41.4463 15.786C38.7838 15.786 36.6176 13.6199 36.6176 10.9574V9.24721H43.9497C44.7997 9.24721 45.5954 9.01064 46.275 8.60037V10.9573ZM46.275 4.7344C46.275 6.01661 45.2319 7.05972 43.9497 7.05972H36.6176V6.98961V5.60251C36.6176 3.71951 38.1496 2.1875 40.0326 2.1875H46.275V4.7344Z" fill="white"/>
<path d="M42.2198 29.8405C42.0164 29.637 41.7342 29.52 41.4465 29.52C41.1578 29.52 40.8767 29.637 40.6733 29.8405C40.4687 30.0439 40.3528 30.3261 40.3528 30.6138C40.3528 30.9025 40.4687 31.1836 40.6733 31.3871C40.8767 31.5916 41.1578 31.7075 41.4465 31.7075C41.7342 31.7075 42.0164 31.5916 42.2198 31.3871C42.4233 31.1836 42.5403 30.9025 42.5403 30.6138C42.5403 30.3261 42.4233 30.0439 42.2198 29.8405Z" fill="white"/>
<path d="M29.2474 15.3047L24.6732 10.7306V5.46875C24.6732 2.45328 22.22 0 19.2045 0H5.46875C2.45328 0 0 2.45328 0 5.46875V15.0937C0 18.1092 2.45328 20.5625 5.46875 20.5625H19.2044C21.4656 20.5625 23.4374 19.2055 24.2647 17.1719H28.4739C28.9162 17.1719 29.3151 16.9053 29.4844 16.4967C29.6537 16.0881 29.5601 15.6175 29.2474 15.3047ZM23.4668 14.9844C22.9573 14.9844 22.5152 15.3362 22.4009 15.8329C22.0566 17.3296 20.7422 18.375 19.2044 18.375H5.46875C3.65947 18.375 2.1875 16.903 2.1875 15.0937V5.46875C2.1875 3.65947 3.65947 2.1875 5.46875 2.1875H19.2044C21.0137 2.1875 22.4856 3.65947 22.4856 5.46875V11.1836C22.4856 11.4737 22.6009 11.7519 22.806 11.957L25.8334 14.9844H23.4668Z" fill="white"/>
<path d="M50.5312 35.4375H36.7956C34.5344 35.4375 32.5626 36.7945 31.7352 38.8281H27.5261C27.0837 38.8281 26.6849 39.0947 26.5155 39.5033C26.3462 39.9119 26.4399 40.3825 26.7526 40.6953L31.3267 45.2694V50.5312C31.3267 53.5467 33.78 56 36.7955 56H50.5312C53.5467 56 56 53.5467 56 50.5312V40.9062C56 37.8908 53.5467 35.4375 50.5312 35.4375ZM53.8125 50.5312C53.8125 52.3405 52.3405 53.8125 50.5312 53.8125H36.7956C34.9863 53.8125 33.5143 52.3405 33.5143 50.5312V44.8164C33.5143 44.5263 33.3991 44.2481 33.194 44.043L30.1666 41.0156H32.5331C33.0427 41.0156 33.4848 40.6638 33.5991 40.1671C33.9434 38.6704 35.2578 37.625 36.7956 37.625H50.5312C52.3405 37.625 53.8125 39.097 53.8125 40.9062V50.5312Z" fill="white"/>
<path d="M48.5795 42.8086C48.1525 42.3815 47.4599 42.3815 47.0328 42.8086L44.1253 45.7161L42.7733 44.3641C42.3462 43.937 41.6537 43.937 41.2265 44.3641C40.7994 44.7913 40.7994 45.4838 41.2265 45.911L43.3518 48.0364C43.5654 48.25 43.8453 48.3568 44.1252 48.3568C44.4051 48.3568 44.6851 48.25 44.8986 48.0364L48.5795 44.3555C49.0066 43.9284 49.0066 43.2358 48.5795 42.8086Z" fill="white"/>
<path d="M17.309 7.24851C17.1797 5.37305 15.6679 3.86127 13.7924 3.73199C12.729 3.65882 11.7153 4.01757 10.9387 4.74251C10.173 5.45727 9.73376 6.4679 9.73376 7.51505C9.73387 8.11924 10.2235 8.60891 10.8276 8.60891C11.4317 8.60891 11.9214 8.11924 11.9214 7.51516C11.9214 7.06552 12.1025 6.6488 12.4315 6.34168C12.7599 6.03499 13.1903 5.88274 13.6422 5.91446C14.4339 5.96904 15.0721 6.60724 15.1267 7.39901C15.1819 8.19952 14.6572 8.90696 13.879 9.08108C13.0272 9.27162 12.4323 10.0122 12.4323 10.8819V11.4655C12.4323 12.0695 12.9219 12.5592 13.526 12.5592C14.1301 12.5592 14.6198 12.0695 14.6198 11.4655V11.1472C16.3144 10.6416 17.4328 9.04401 17.309 7.24851Z" fill="white"/>
<path d="M14.2996 14.8771C14.0962 14.6737 13.814 14.5566 13.5264 14.5566C13.2376 14.5566 12.9565 14.6737 12.7531 14.8771C12.5486 15.0805 12.4326 15.3627 12.4326 15.6504C12.4326 15.938 12.5486 16.2202 12.7531 16.4237C12.9565 16.6271 13.2376 16.7441 13.5264 16.7441C13.814 16.7441 14.0962 16.6271 14.2996 16.4237C14.5031 16.2202 14.6201 15.938 14.6201 15.6504C14.6201 15.3627 14.5031 15.0805 14.2996 14.8771Z" fill="white"/>
<path d="M11.8748 49.758C11.6714 49.5545 11.3892 49.4375 11.1016 49.4375C10.8139 49.4375 10.5317 49.5545 10.3283 49.758C10.1248 49.9614 10.0078 50.2436 10.0078 50.5312C10.0078 50.8189 10.1248 51.1011 10.3283 51.3045C10.5317 51.508 10.8139 51.625 11.1016 51.625C11.3892 51.625 11.6714 51.508 11.8748 51.3045C12.0783 51.1011 12.1953 50.8189 12.1953 50.5312C12.1953 50.2436 12.0783 49.9614 11.8748 49.758Z" fill="white"/>
</svg>
