<svg width="160" height="160" viewBox="0 0 160 160" fill="none" xmlns="http://www.w3.org/2000/svg">
<circle cx="80" cy="80" r="78.5" stroke="#A7A7A7" stroke-width="3"/>
<path d="M85.2031 106.031C84.47 106.031 83.875 106.626 83.875 107.359C83.875 108.092 84.47 108.688 85.2031 108.688C85.9362 108.688 86.5312 108.092 86.5312 107.359C86.5312 106.626 85.9362 106.031 85.2031 106.031Z" fill="#A7A7A7"/>
<path d="M103.797 52.1094H99.8125V49.9844C99.8125 47.7874 98.0251 46 95.8281 46H63.9531C61.7561 46 59.9688 47.7874 59.9688 49.9844V52.1094H55.9844C53.7874 52.1094 52 53.8968 52 56.0938C52 64.7341 56.0431 71.0839 62.6022 72.8518C64.8507 77.801 68.4058 82.0084 72.9182 85.0486C73.9576 85.7489 74.5781 86.9478 74.5781 88.2556V95.5735C73.6677 95.8069 72.8324 96.2803 72.1502 96.9627C71.1465 97.9665 70.5938 99.3003 70.5938 100.719H69.2656C67.0686 100.719 65.2812 102.506 65.2812 104.703V112.672C65.2812 113.405 65.876 114 66.6094 114H93.1719C93.9053 114 94.5 113.405 94.5 112.672V104.703C94.5 102.506 92.7126 100.719 90.5156 100.719H89.1875C89.1875 98.2479 87.4919 96.1655 85.2031 95.5744V88.2623C85.2031 86.9502 85.824 85.7491 86.8643 85.0487C91.3772 82.0083 94.9323 77.8008 97.1807 72.8514C103.739 71.0828 107.781 64.7335 107.781 56.0938C107.781 53.8968 105.994 52.1094 103.797 52.1094ZM54.6562 56.0938C54.6562 55.3614 55.252 54.7656 55.9844 54.7656H59.9688V60.7023C59.9688 63.7298 60.4274 66.6944 61.3327 69.5495C57.1062 67.456 54.6562 62.621 54.6562 56.0938ZM90.5156 103.375C91.248 103.375 91.8438 103.971 91.8438 104.703V111.344H67.9375V104.703C67.9375 103.971 68.5333 103.375 69.2656 103.375H90.5156ZM97.1562 60.7023C97.1562 64.3302 96.434 67.8604 95.0092 71.1945C92.9825 75.9382 89.6529 79.9671 85.3806 82.8455C83.6062 84.0399 82.5469 86.0649 82.5469 88.2623V96.7344C82.5469 97.4679 83.1416 98.0625 83.875 98.0625C85.3397 98.0625 86.5312 99.2541 86.5312 100.719H73.25C73.25 100.01 73.5265 99.3429 74.0284 98.8409C74.5057 98.3636 75.1322 98.0903 75.8021 98.0645C75.8365 98.0672 75.8712 98.0685 75.9061 98.0685C76.6395 98.0685 77.2342 97.4679 77.2342 96.7344V88.2556C77.2342 86.0629 76.1756 84.0406 74.4024 82.8458C70.1297 79.9672 66.8001 75.9383 64.7731 71.1943C63.3478 67.8613 62.625 64.3313 62.625 60.7023V49.9844C62.625 49.252 63.2208 48.6562 63.9531 48.6562H95.8281C96.5605 48.6562 97.1562 49.252 97.1562 49.9844V60.7023ZM98.449 69.5492C99.354 66.6935 99.8125 63.729 99.8125 60.7023V54.7656H103.797C104.529 54.7656 105.125 55.3614 105.125 56.0938C105.125 62.6206 102.675 67.4555 98.449 69.5492Z" fill="#A7A7A7"/>
<path d="M90.4013 61.6927C90.2452 61.2118 89.8295 60.8613 89.3291 60.7888L83.5974 59.9569L81.0337 54.7619C80.8099 54.3085 80.3483 54.0215 79.8427 54.0215C79.3371 54.0215 78.8754 54.3085 78.6516 54.7619L76.0879 59.9569L70.3564 60.7888C69.856 60.8615 69.4404 61.212 69.2841 61.6927C69.1279 62.1736 69.2582 62.7014 69.6202 63.0543L73.7685 67.0971L72.7894 72.8064C72.704 73.3047 72.9088 73.8082 73.3179 74.1054C73.7269 74.4025 74.2692 74.4417 74.7165 74.2065L79.8428 71.5113L84.9703 74.2065C85.4205 74.4431 85.9625 74.4006 86.3689 74.1053C86.7779 73.808 86.9827 73.3044 86.8971 72.8061L85.917 67.097L90.0651 63.0543C90.4273 62.7014 90.5574 62.1736 90.4013 61.6927ZM83.5629 65.6822C83.2498 65.9874 83.1068 66.4271 83.1809 66.8581L83.8239 70.603L80.4606 68.8351C80.0735 68.6318 79.6113 68.6318 79.2247 68.8353L75.8625 70.603L76.5048 66.8578C76.5787 66.4268 76.4358 65.9872 76.1227 65.6822L73.4022 63.0307L77.1609 62.4851C77.5936 62.4223 77.9676 62.1505 78.1611 61.7585L79.8428 58.3506L81.5245 61.7585C81.718 62.1505 82.092 62.4223 82.5247 62.4851L86.2835 63.0307L83.5629 65.6822Z" fill="#A7A7A7"/>
<path d="M79.8906 106.031H74.5781C73.8447 106.031 73.25 106.626 73.25 107.359C73.25 108.093 73.8447 108.688 74.5781 108.688H79.8906C80.624 108.688 81.2188 108.093 81.2188 107.359C81.2188 106.626 80.624 106.031 79.8906 106.031Z" fill="#A7A7A7"/>
<path d="M100.345 110.016H101.085C100.708 109.941 100.455 109.934 100.345 110.016Z" fill="#A7A7A7"/>
</svg>
