<svg width="175" height="169" viewBox="0 0 175 169" fill="none" xmlns="http://www.w3.org/2000/svg">
<path d="M73.13 75.748C72.8829 75.501 72.5403 75.3589 72.191 75.3589C71.8417 75.3589 71.4992 75.5009 71.252 75.748C71.005 75.9951 70.8629 76.3377 70.8629 76.687C70.8629 77.0363 71.005 77.379 71.252 77.6259C71.499 77.8729 71.8417 78.0151 72.191 78.0151C72.5403 78.0151 72.8829 77.873 73.13 77.6259C73.377 77.379 73.5191 77.0363 73.5191 76.687C73.5191 76.3377 73.377 75.9951 73.13 75.748Z" fill="#E83A40"/>
<path d="M117.015 48H64.1558C61.9588 48 60.1714 49.7874 60.1714 51.9844V74.0311C60.1714 76.2281 61.9588 78.0155 64.1558 78.0155H66.5464C67.2799 78.0155 67.8745 77.4208 67.8745 76.6874C67.8745 75.954 67.2799 75.3593 66.5464 75.3593H64.1558C63.4235 75.3593 62.8277 74.7635 62.8277 74.0311V51.9844C62.8277 51.252 63.4235 50.6562 64.1558 50.6562H117.015C117.747 50.6562 118.343 51.252 118.343 51.9844V74.0311C118.343 74.7635 117.747 75.3593 117.015 75.3593H108.132C107.779 75.3593 107.441 75.4993 107.192 75.7483L102.819 80.1216L98.4457 75.7483C98.1967 75.4993 97.8588 75.3593 97.5066 75.3593H87.1493C87.0517 75.1085 86.9413 74.8611 86.8163 74.6183C85.8654 72.7708 84.2467 71.4205 82.2587 70.816L80.3385 70.2322C79.6625 70.0263 78.9438 70.3865 78.7034 71.051L75.6861 79.3901C74.8493 81.703 73.1987 83.6246 71.0387 84.8009L68.2063 86.3431C67.5102 85.4981 66.4564 84.9585 65.2787 84.9585H56.792C54.7011 84.9585 53 86.6597 53 88.7507V112.207C52.9997 114.299 54.7009 116 56.7919 116H65.2786C66.6006 116 67.766 115.319 68.445 114.291L69.8002 114.822C71.7926 115.604 73.8883 116 76.0288 116H93.9489C96.6376 116 98.8251 113.813 98.8251 111.124C98.8251 110.234 98.5843 109.4 98.166 108.681C100.144 108.059 101.583 106.208 101.583 104.028C101.583 103.115 101.331 102.261 100.893 101.529C102.786 100.86 104.147 99.0519 104.147 96.9314C104.147 94.7227 102.671 92.8534 100.653 92.256C101.063 91.542 101.299 90.7158 101.299 89.835C101.299 87.1463 99.1119 84.9588 96.4231 84.9588H85.7732L87.2626 80.5369C87.5409 79.7103 87.6727 78.8603 87.6637 78.0156H96.9565L101.88 82.9391C102.139 83.1984 102.479 83.3281 102.819 83.3281C103.159 83.3281 103.499 83.1984 103.758 82.9391L108.682 78.0155H117.015C119.212 78.0155 120.999 76.2281 120.999 74.0311V51.9844C120.999 49.7874 119.212 48 117.015 48ZM66.4145 112.208C66.4144 112.834 65.9049 113.343 65.2786 113.343H56.7919C56.1656 113.343 55.6561 112.834 55.6561 112.208V88.7508C55.6561 88.1245 56.1656 87.6149 56.7919 87.6149H59.7071V103.967C59.7071 104.7 60.3017 105.295 61.0353 105.295C61.7688 105.295 62.3634 104.7 62.3634 103.967V87.6149H65.2786C65.7747 87.6149 66.1963 87.9351 66.3508 88.3792C66.3618 88.4435 66.3778 88.5073 66.3987 88.5703C66.4082 88.6293 66.4145 88.6892 66.4145 88.7508V112.208ZM96.4233 87.6148V87.6149C97.6474 87.6149 98.6432 88.6107 98.6432 89.8348C98.6432 91.059 97.6474 92.0549 96.4233 92.0549H89.2181C88.4846 92.0549 87.89 92.6497 87.89 93.383C87.89 94.1164 88.4846 94.7112 89.2181 94.7112L99.2712 94.7114C100.495 94.7114 101.491 95.7073 101.491 96.9314C101.491 98.1555 100.495 99.1515 99.2712 99.1515H89.2181C88.4846 99.1515 87.89 99.7462 87.89 100.48C87.89 101.213 88.4846 101.808 89.2181 101.808H96.7071C97.9312 101.808 98.927 102.804 98.927 104.028C98.927 105.252 97.9312 106.248 96.7071 106.248H89.2181C88.4846 106.248 87.89 106.842 87.89 107.576C87.89 108.309 88.4846 108.904 89.2181 108.904H93.949C95.1731 108.904 96.1689 109.9 96.1689 111.124C96.1689 112.348 95.1731 113.344 93.949 113.344H76.0288C74.2216 113.344 72.4523 113.009 70.77 112.35L69.0706 111.683V88.8969L72.3087 87.1337C75.0395 85.6468 77.1258 83.2178 78.1837 80.2939L80.772 73.1404L81.486 73.3574C82.781 73.7512 83.8352 74.6307 84.4547 75.8339C85.0741 77.0372 85.1773 78.4064 84.7452 79.6889L82.6658 85.8627C82.5293 86.268 82.5964 86.7143 82.8458 87.0615C83.0953 87.4088 83.4967 87.6148 83.9245 87.6148H96.4233Z" fill="#E83A40"/>
<path d="M114.917 60.8792C114.665 60.1057 114.009 59.5525 113.204 59.4358L110.854 59.0951L109.803 56.9668C109.443 56.2376 108.714 55.7847 107.901 55.7847C107.901 55.7847 107.901 55.7847 107.9 55.7847C107.087 55.7849 106.358 56.2382 105.998 56.9678L104.948 59.0967L102.599 59.4387C101.794 59.556 101.138 60.1094 100.887 60.8832C100.636 61.6568 100.842 62.4902 101.424 63.058L103.125 64.7144L102.724 67.0542C102.587 67.8561 102.91 68.651 103.569 69.1291C103.94 69.3991 104.375 69.5362 104.813 69.5362C105.151 69.5362 105.49 69.4547 105.803 69.2899L107.904 68.1847L110.006 69.2887C110.726 69.667 111.582 69.6049 112.24 69.1266C112.898 68.6482 113.221 67.853 113.083 67.0512L112.681 64.7118L114.381 63.0543C114.963 62.4861 115.168 61.6527 114.917 60.8792ZM110.625 63.0065C110.125 63.494 109.897 64.1962 110.015 64.8845L110.282 66.4334L108.89 65.7021C108.271 65.3778 107.533 65.3778 106.916 65.7029L105.525 66.4347L105.79 64.8857C105.908 64.1971 105.68 63.4951 105.179 63.0078L104.053 61.911L105.609 61.6846C106.3 61.584 106.897 61.15 107.206 60.5237L107.901 59.1141L108.597 60.5233C108.906 61.1495 109.504 61.5831 110.195 61.6834L111.75 61.9089L110.625 63.0065Z" fill="#E83A40"/>
<path d="M98.0213 60.8792C97.7696 60.1057 97.1134 59.5527 96.3082 59.4358L93.9591 59.0951L92.9079 56.9668C92.5477 56.2376 91.8189 55.7847 91.0056 55.7847C91.0055 55.7847 91.0052 55.7847 91.0051 55.7847C90.1916 55.7849 89.4626 56.2382 89.1028 56.9679L88.0529 59.0967L85.7037 59.4387C84.8988 59.556 84.2427 60.1094 83.9915 60.8832C83.7404 61.6568 83.9462 62.4902 84.529 63.058L86.2293 64.7144L85.8286 67.0542C85.6913 67.8561 86.0149 68.6511 86.6731 69.1291C87.0449 69.3991 87.4798 69.5362 87.9177 69.5362C88.2551 69.5362 88.5941 69.4547 88.9074 69.2899L91.0084 68.1847L93.11 69.2887C93.8302 69.667 94.6861 69.6049 95.3443 69.1266C96.0022 68.6482 96.3254 67.853 96.1877 67.0512L95.7858 64.7118L97.4854 63.0543C98.0675 62.4861 98.2729 61.6528 98.0213 60.8792ZM93.7297 63.0065C93.2297 63.494 93.0019 64.1962 93.1201 64.8845L93.3861 66.4334L91.9944 65.7023C91.3759 65.3775 90.6378 65.3779 90.0201 65.7029L88.6292 66.4347L88.8944 64.8857C89.0124 64.1971 88.7841 63.4951 88.2837 63.0078L87.1579 61.911L88.7131 61.6846C89.4043 61.584 90.0013 61.1501 90.3105 60.5235L91.0056 59.114L91.7014 60.523C92.0106 61.1493 92.608 61.5831 93.2993 61.6834L94.8546 61.9089L93.7297 63.0065Z" fill="#E83A40"/>
<path d="M81.126 60.8792C80.8743 60.1057 80.2179 59.5525 79.413 59.4358L77.0638 59.0951L76.0126 56.9668C75.6524 56.2376 74.9237 55.7847 74.1103 55.7847C74.1102 55.7847 74.1099 55.7847 74.1098 55.7847C73.2963 55.7849 72.5673 56.2382 72.2075 56.9679L71.1576 59.0967L68.8085 59.4387C68.0034 59.556 67.3474 60.1096 67.0961 60.8833C66.845 61.6569 67.051 62.4903 67.6336 63.058L69.3339 64.7144L68.9332 67.0542C68.7958 67.8561 69.1195 68.6511 69.7777 69.1291C70.1495 69.3991 70.5844 69.5362 71.0223 69.5362C71.3597 69.5362 71.6987 69.4547 72.012 69.2899L74.113 68.1847L76.2145 69.2887C76.9346 69.667 77.7907 69.6049 78.4488 69.1266C79.1067 68.6482 79.4298 67.853 79.2921 67.0512L78.8902 64.7118L80.5898 63.0543C81.1722 62.4861 81.3775 61.6528 81.126 60.8792ZM76.8344 63.0065C76.3344 63.494 76.1066 64.1962 76.2248 64.8845L76.4908 66.4334L75.0991 65.7023C74.4807 65.3775 73.7424 65.3779 73.1249 65.7029L71.7339 66.4347L71.9993 64.8853C72.1169 64.197 71.8886 63.4952 71.3885 63.0078L70.2626 61.911L71.8179 61.6846C72.509 61.584 73.106 61.1501 73.4152 60.5235L74.1103 59.114L74.8061 60.523C75.1153 61.1493 75.7127 61.5831 76.404 61.6834L77.9595 61.9089L76.8344 63.0065Z" fill="#E83A40"/>
<path d="M61.0353 107.415C60.3018 107.415 59.7072 108.009 59.7072 108.743V108.763C59.7072 109.497 60.3018 110.092 61.0353 110.092C61.7688 110.092 62.3634 109.497 62.3634 108.763V108.743C62.3634 108.009 61.7688 107.415 61.0353 107.415Z" fill="#E83A40"/>
<path d="M38.7985 13.6966C39.4919 13.178 39.4919 13.178 38.8637 13.6098L39.2528 13.2865C37.6531 14.5362 36.0794 15.8379 34.558 17.1939L35.5317 16.287C35.51 16.3087 35.4665 16.3304 35.447 16.3521C36.1599 15.6839 36.8945 15.0135 37.6205 14.3648C38.0747 13.9764 38.5073 13.6098 38.9615 13.2431C38.9063 13.2901 38.8483 13.3336 38.7876 13.3733C44.7148 8.53517 49.8725 5.4045 56.806 2.3606C60.7183 0.677025 61.1117 0.438374 56.5887 1.79869C49.4161 4.06588 43.5672 6.78868 37.0119 10.5659C34.8927 12.3362 32.7496 14.2368 30.7391 16.1156C29.5698 17.2156 28.4461 18.3177 27.3419 19.4611L26.1313 20.7346C26.4552 20.3679 26.7834 19.9796 27.105 19.6129C27.0888 19.6456 27.0667 19.675 27.0398 19.6997C27.1376 19.617 27.2245 19.5222 27.2985 19.4177C27.8832 18.7495 28.4896 18.1008 29.1155 17.4651C29.0938 17.4868 29.0525 17.5085 29.0308 17.5302C29.009 17.5519 29.9176 16.6233 30.3718 16.1894C30.3066 16.2545 30.1327 16.4063 30.1327 16.4063C31.8194 14.7011 33.5299 13.1238 35.3687 11.5704H35.347C41.5763 6.10743 38.7637 8.50263 34.2211 12.0043C32.2106 13.5577 30.2849 15.135 28.3809 16.8402C27.7535 17.4188 27.126 18.0234 26.4986 18.654C26.0444 19.1074 25.5901 19.5826 25.1141 20.0577C24.3795 20.791 20.6584 24.8503 21.6104 23.9C23.0819 22.3683 24.5729 20.8778 26.153 19.409C22.9088 22.7256 19.8883 26.2531 17.1112 29.9683C13.0142 35.5267 9.99736 41.0048 7.1718 47.2965C6.93271 47.8367 6.6958 48.3965 6.45671 48.9367C2.82478 57.8319 0.985993 69.3826 0.142672 78.6033C0.120937 79.4884 0.0992015 80.3953 0.0992015 81.2805C0.0992015 80.8466 0.0774665 80.4127 0.0557314 79.9788C0.0339963 80.5819 0.0339963 81.1655 0.0144347 81.7708C-0.00730034 83.0726 -0.00730034 84.3396 0.0339963 85.6348C0.0992015 86.4137 0.251347 87.9671 0.251347 87.9671C0.251347 88.7655 0.251347 89.5661 0.273082 90.3861C0.446963 92.7401 0.727345 95.0919 1.1164 97.4025C2.12788 103.765 3.86794 109.99 6.30239 115.957C11.1754 127.136 16.281 135.164 24.8902 143.681C26.4368 145.218 28.0688 146.667 29.7785 148.021C32.7047 150.53 35.7982 152.837 39.0376 154.928C40.0744 155.642 41.135 156.354 42.1957 157.024C43.1694 157.369 44.078 157.909 45.0061 158.341C44.7691 158.233 44.5105 158.124 44.2497 158.018C42.8434 157.261 43.0173 157.367 44.141 157.974C44.141 157.974 43.0825 157.499 42.5413 157.239C44.8343 158.664 47.5404 160.263 49.9834 161.342C50.8702 161.667 51.7787 161.969 52.6655 162.27C53.3175 162.487 53.9413 162.704 54.5673 162.897C57.888 164.064 61.2761 165.03 64.7132 165.789C64.2372 165.705 63.783 165.618 63.307 165.531C63.3445 165.528 63.3823 165.535 63.4157 165.553C62.4419 165.357 61.4595 165.143 60.5162 164.926C60.5379 164.926 60.5814 164.947 60.6031 164.947C60.6249 164.947 59.4142 164.668 58.8296 164.494L59.0252 164.559C57.0125 164.041 55.065 163.459 53.098 162.767C55.1737 163.696 57.2711 164.516 59.436 165.251C60.864 165.596 62.2898 165.919 63.7612 166.18C66.2934 166.831 68.8233 167.345 71.4185 167.82C73.8637 168.23 76.3089 168.64 78.7954 168.792C81.5427 168.944 84.1379 169.028 86.9069 168.985C92.2617 168.872 97.5963 168.291 102.85 167.249C103.954 167.142 105.057 167.013 106.16 166.861C111.346 165.637 116.419 163.975 121.324 161.895C121.409 161.873 121.842 161.678 121.976 161.615C128.888 158.688 135.924 154.256 141.786 149.554C144.418 147.471 146.933 145.243 149.319 142.883C151.664 140.543 153.887 138.085 155.981 135.52C153.933 137.598 151.782 139.572 149.537 141.436C149.278 141.718 148.998 141.998 148.737 142.278C148.715 142.299 143.503 147.417 145.752 144.849C143.121 147.11 140.369 149.229 137.511 151.197C138.223 150.657 138.917 150.138 139.63 149.598C139.306 149.815 138.326 150.591 138.03 150.7C135.856 152.436 133.379 154.241 130.934 155.558C128.76 156.642 134.396 152.837 134.568 152.685C136.278 151.585 137.965 150.418 139.586 149.214C140.258 148.608 140.971 148.005 141.621 147.378C140.927 147.832 140.301 148.415 139.608 148.912C138.915 149.409 139.954 148.478 139.997 148.415C139.371 148.825 138.743 149.214 138.095 149.58C137.035 150.487 135.952 151.351 134.85 152.195C128.123 156.512 123.45 159.621 133.876 152.928C129.794 155.939 125.417 158.529 120.811 160.658C120.529 160.788 120.249 160.895 119.968 161.025C117.847 161.91 120.314 160.658 120.725 160.441C123.298 159.103 125.765 157.721 128.23 156.189C131.3 154.393 134.262 152.417 137.1 150.273C134.957 151.848 132.816 153.295 130.523 154.655C127.239 156.49 123.844 158.119 120.357 159.534C119.988 159.686 119.599 159.838 119.231 159.968C115.706 161.632 111.748 163.186 107.962 164.071C107.377 164.201 105.712 164.353 103.095 164.891C104.501 164.546 105.603 164.288 107.031 163.984C107.01 163.984 106.944 164.006 106.923 163.984C106.488 164.071 105.619 164.223 105.647 164.223C106.253 164.049 106.858 163.9 107.486 163.726C108.848 163.207 110.255 162.732 111.639 162.235C112.483 161.977 113.326 161.697 114.169 161.415C114.884 161.114 115.575 160.832 116.269 160.508C117.573 160.012 118.842 159.493 120.118 158.955C121.394 158.417 122.629 157.831 123.861 157.204C124.163 157.055 124.467 156.881 124.748 156.731C126.154 156.061 127.604 155.132 128.966 154.345L128.771 154.41C127.971 154.926 124.12 156.957 127.299 155.061C127.062 155.169 126.802 155.278 126.565 155.364C125.893 155.775 125.202 156.098 124.509 156.449L125.289 155.996C126.434 155.477 126.652 155.412 125.376 155.952C125.593 155.824 125.787 155.716 126.002 155.607C124.596 156.169 123.189 156.692 121.763 157.185C122.692 156.773 123.774 156.449 124.661 156.061C124.963 155.887 125.808 155.456 124.943 155.952C125.784 155.622 126.607 155.247 127.408 154.831C127.775 154.657 127.084 155.067 127.084 155.067C127.519 154.896 127.954 154.701 128.36 154.527C131.54 152.843 129.399 153.902 127.906 154.701C129.486 153.772 131.02 152.748 132.579 151.828C134.048 150.986 129.399 154.011 129.356 154.03C129.377 154.052 129.29 154.095 129.29 154.095C129.614 153.946 129.96 153.794 130.286 153.642C130.784 153.405 131.26 153.188 131.757 152.952C131.826 152.882 131.906 152.823 131.994 152.778C134.352 151.477 134.135 151.592 132.253 152.607C132.275 152.585 136.559 149.583 135.37 150.598C134.807 151.032 134.244 151.44 133.681 151.85C133.292 152.088 132.924 152.303 132.557 152.542C133.659 151.98 134.763 151.396 135.846 150.771C138.354 149.238 140.669 147.057 142.962 145.2C144.627 143.927 139.738 148.222 139.738 148.237C139.371 148.541 139.004 148.843 138.652 149.123C139.258 148.756 139.843 148.389 140.447 148.023L142.092 146.504C141.399 147.001 142.158 146.439 142.329 146.309C143.088 145.597 144.579 144.139 144.579 144.139C145.207 143.642 145.835 143.145 146.461 142.62C145.92 143.202 145.4 143.764 144.861 144.304C144.018 145.059 142.979 145.686 142.179 146.441C142.957 145.857 143.735 145.276 144.492 144.671C143.67 145.469 142.849 146.248 141.984 147.003C142.158 146.895 142.307 146.764 142.481 146.658C144.255 145.211 145.959 143.677 147.609 142.08C147.571 142.135 147.528 142.185 147.478 142.23L148.148 141.692C148.667 141.258 149.165 140.848 149.669 140.416C150.756 139.143 151.81 137.826 152.914 136.531L151.81 137.437C150.923 138.409 150.036 139.36 149.106 140.288C149.8 139.531 150.534 138.754 151.162 137.956C147.074 140.993 152.158 135.969 152.914 135.105C152.243 135.756 151.551 136.379 150.858 137.006C149.734 138.333 148.536 139.595 147.267 140.785C147.204 140.87 146.878 141.152 146.791 141.238C146.944 141.087 147.096 140.913 147.246 140.763C147.593 140.395 147.939 140.006 148.285 139.639C150.893 137.136 150.858 137.158 148.608 139.251C148.608 139.251 149.41 138.383 149.821 137.934C149.713 138.021 149.604 138.108 149.517 138.192C148.891 138.928 148.241 139.639 147.593 140.362C147.528 140.34 147.485 140.34 147.42 140.319C147.354 140.384 147.161 140.598 147.117 140.642C144.749 143.089 142.181 145.335 139.438 147.357C137.051 149.167 134.566 150.846 131.996 152.388C132.796 151.826 133.576 151.288 134.355 150.704C135.198 150.164 136.063 149.667 136.863 149.062C136.193 149.515 134.852 150.364 134.852 150.364C135.089 150.168 135.328 149.995 135.565 149.823L134.974 150.203C135.191 150.051 135.428 149.902 135.646 149.769C134.911 150.092 136.424 149.164 135.97 149.531C146.57 141.564 137.245 147.912 131.84 151.366C148 140.269 138.178 147.049 131.405 151.409C130.453 152.251 128.486 153.397 127.339 154.065C127.102 153.959 126.841 153.848 126.604 153.742C126.501 153.821 126.393 153.893 126.28 153.959C126.302 153.937 126.321 153.937 126.365 153.915C126.019 154.108 125.674 154.325 125.35 154.518C123.482 155.635 121.537 156.617 119.529 157.456C119.444 157.499 119.055 157.629 118.947 157.673C117.627 158.17 119.164 157.371 119.423 157.219C120.525 156.638 121.629 156.054 122.709 155.449C123.965 154.868 125.198 154.241 126.404 153.592C126.36 153.592 126.317 153.57 126.276 153.57C127.379 153.06 128.455 152.493 129.499 151.869C129.11 152.13 128.721 152.388 128.354 152.626C129.045 152.323 129.738 151.999 130.429 151.72C131.081 151.223 137.461 146.17 133.87 148.739C134.691 148.114 136.335 146.816 136.335 146.816C136.987 146.406 137.639 145.975 138.26 145.515C135.491 148.17 142.694 143.809 141.247 142.751C141.658 142.449 147.411 137.785 145.096 140.334C144.444 141.024 143.755 141.672 143.086 142.341C144.101 141.434 145.074 140.505 146.048 139.577C149.119 136.576 149.639 136.166 146.222 139.75C145.27 140.722 144.296 141.651 143.301 142.571C144.318 141.664 145.313 140.735 146.307 139.828C146.437 139.72 146.848 139.353 146.741 139.503C148.708 137.496 150.569 135.381 152.321 133.198C152.127 133.372 151.932 133.545 151.738 133.738C152.451 132.68 153.381 131.384 154.333 130.543C154.377 130.499 154.442 130.456 154.483 130.412C154.809 129.978 155.136 129.527 155.457 129.074C155.199 129.486 154.938 129.896 154.657 130.306C156.929 128.946 152.797 133.113 152.049 134.105C150.21 136.157 148.415 138.036 146.424 139.915C145.624 140.67 145.711 140.605 146.446 139.956C148.154 138.381 149.778 136.76 151.356 135.055C150.621 136.005 149.886 136.912 149.128 137.819C149.41 137.561 150.432 136.632 150.752 136.502C151.875 135.164 152.936 133.782 154.06 132.443C155.077 131.278 151.81 135.509 151.788 135.552C151.564 135.89 151.311 136.208 151.032 136.502C151.467 136.068 153.521 133.608 151.854 135.769C153.81 133.816 155.64 131.794 157.392 129.694C157.046 129.996 158.235 127.902 158.261 127.88C158.672 127.147 159.083 126.433 159.493 125.711C160.9 123.531 162.199 121.285 163.406 118.985C162.854 120.225 162.288 121.44 161.708 122.63C161.732 122.57 161.76 122.512 161.793 122.457C161.665 122.758 161.491 123.062 161.339 123.342C162.897 120.795 159.761 126.494 159.543 126.813C158.55 128.332 157.511 129.794 156.429 131.241C157.381 130.204 158.333 129.145 159.241 128.067L160.669 125.865C163.455 122.535 165.992 119.006 168.261 115.306C168.272 115.285 168.279 115.263 168.283 115.241C172.76 104.638 174.967 96.0227 174.988 84.5587C175.017 83.6288 174.982 82.698 174.882 81.773C174.856 81.557 174.841 81.3397 174.838 81.1221C174.805 78.9345 174.587 76.7536 174.186 74.6026C174.015 73.2857 173.841 71.9449 173.623 70.628C172.848 66.508 171.764 62.4519 170.38 58.4936C170.835 60.4592 171.33 62.2079 171.828 64.1345C171.893 64.5228 171.98 64.9112 172.045 65.2778C172.132 65.5382 172.434 66.8117 172.369 66.7249C172.456 67.2435 172.587 67.7403 172.693 68.2588L172.715 68.3651C173.452 71.3895 173.084 70.4609 172.63 68.172C172.976 70.1572 173.234 72.1662 173.408 74.1752C173.626 75.6418 173.797 77.1106 173.928 78.6011C173.949 79.1196 173.884 79.6165 174.015 80.1198C173.975 78.6035 173.859 77.0901 173.667 75.5854C173.965 77.1149 174.111 78.6701 174.102 80.2283H174.145C174.123 79.6468 174.123 78.4796 174.123 78.4796C174.232 79.5817 174.341 80.6817 174.384 81.7838C174.512 84.4611 174.578 88.3685 174.167 82.7992C174.275 85.7537 174.167 88.7122 173.843 91.651C173.604 89.9674 173.626 85.5415 173.454 83.2939C173.345 85.3463 173.171 87.3965 172.913 89.4272C173.043 88.0018 173.15 86.5547 173.193 85.1076C173.108 84.0076 173.043 82.8838 172.956 81.7838C172.956 81.7622 172.934 81.6537 172.934 81.6537C172.891 80.0569 172.782 78.4579 172.654 76.8394C172.674 77.2733 172.695 78.1412 172.695 78.1412C172.674 79.3713 172.611 80.5797 172.545 81.7904C172.458 83.0639 172.35 84.3157 172.2 85.5676C172.263 84.3157 172.284 83.0639 172.284 81.7904C172.295 81.6177 172.295 81.4445 172.284 81.2718C172.281 81.3373 172.274 81.4025 172.263 81.4671C172.328 78.5729 172.091 75.7004 172.113 72.8301C172.156 71.2528 172.804 77.3428 172.891 78.037C172.934 79.3106 172.956 80.5429 172.978 81.7947C173 80.7099 173 79.6143 172.978 78.5555C173.886 86.4592 172.632 71.7757 172.458 70.6952C173.93 77.4534 172.113 69.8968 172.437 69.0117C172.306 68.2349 172.135 67.4778 172.002 66.7011C172.002 66.7011 172.154 67.2847 172.219 67.5689C171.702 64.3297 171.009 62.7959 169.97 59.7303C170.9 63.1647 171.491 66.9658 172.004 70.4848C172.069 71.025 171.745 69.617 171.745 69.617C171.765 69.8101 171.787 70.0053 171.808 70.1984C170.939 64.4556 169.494 58.8841 167.679 53.3778C167.244 52.1911 166.686 51.0043 166.144 49.8588C165.301 48.1231 163.916 45.3678 162.834 43.8144C162.488 43.2091 162.121 42.6038 161.747 42.0223C161.986 42.6906 162.202 43.3609 162.419 44.0292C161.899 42.8641 161.402 41.3085 160.798 40.2498C161.232 41.3346 161.684 42.3673 162.102 43.4456C161.106 41.5884 160.067 39.7964 159.009 38.0043C158.922 37.9826 155.785 34.0991 155.979 34.3334C154.551 32.3483 153.016 30.4282 151.414 28.5906C152.13 29.3044 152.842 30.016 153.536 30.7601C156.498 34.9062 157.385 36.0517 153.925 31.1702C155.444 32.8637 156.852 34.653 158.141 36.5268C158.057 36.3316 157.948 36.1168 157.861 35.9215C157.797 35.8547 157.738 35.782 157.687 35.7046C157.738 35.782 157.797 35.8547 157.861 35.9215C158.057 36.0083 160.002 38.742 160.263 39.139C158.726 36.2448 161.647 41.0612 161.928 41.493C161.819 41.2326 161.928 41.4713 161.971 41.5776C166.859 48.3596 162.382 41.2977 160.976 39.2692C158.683 35.1665 156.433 31.4088 159.937 37.5335C160.306 38.1388 160.652 38.7441 160.997 39.3473C158.25 34.9647 155.129 30.7319 151.567 26.9547C150.571 26.0262 149.554 25.1193 148.524 24.2124C147.722 23.5203 146.922 22.8521 146.1 22.2034C145.013 21.2314 143.927 20.3029 142.768 19.383C144.694 21.047 146.463 22.6872 148.219 24.501C148.502 24.8047 148.804 25.0846 149.089 25.3861C148.787 25.1063 148.506 24.8047 148.202 24.5183L148.074 24.3881L148.137 24.4532C147.402 23.7633 146.668 23.0712 145.909 22.403L145.974 22.4681C145.539 22.0797 145.087 21.6675 144.633 21.2792C144.677 21.3226 144.785 21.4093 144.785 21.4093C142.19 19.1855 139.569 17.1982 136.78 15.2131C136.78 15.2131 130.912 12.2538 130.227 11.9305C127.563 10.5783 124.826 9.37454 122.029 8.32472C121.77 8.21624 121.487 8.10777 121.207 8.00146C121.487 8.08607 121.77 8.19455 122.05 8.28133C123.196 8.64799 124.3 9.05803 125.404 9.46808C130.464 11.9088 134.076 13.549 126.204 9.79352C129.664 11.1556 132.994 12.8257 136.154 14.7835C133.342 12.8179 136.739 14.9549 135.137 13.9395C139.247 16.3152 153.155 27.9115 141.173 17.5887C141.671 17.9359 142.168 18.2808 142.666 18.6475C140.956 17.2221 142.903 18.6258 143.379 18.9708C143.11 18.6967 142.864 18.4006 142.644 18.0856C142.016 17.6972 137.95 15.0482 139.334 16.1004C139.117 15.9486 138.899 15.7967 138.706 15.6665C138.673 15.6503 138.644 15.6282 138.619 15.6014C138.696 15.6532 138.768 15.7105 138.836 15.7728C138.578 15.6014 132.238 11.9956 134.359 13.3863C130.507 11.1625 126.317 9.60693 122.116 8.17936C120.99 7.81271 119.888 7.44605 118.784 7.09458C118.092 6.87763 111.407 5.17235 112.641 4.70807C112.576 4.68637 109.598 3.58424 111.213 3.86628L110.196 3.56905C109.157 3.44104 85.9028 2.26731 98.7308 2.72726C99.7045 2.83574 97.1311 2.85743 97.0659 2.85743C104.081 3.90561 110.916 5.91857 117.377 8.83891C117.312 8.79552 112.359 7.02516 113.635 7.80186C113.485 7.80186 96.7421 3.11561 91.0735 2.64048C89.1478 3.44104 95.5944 6.76264 95.7466 6.85159C97.7571 6.91668 99.7263 7.06855 101.717 7.30503C105.86 7.96885 109.943 8.96501 113.926 10.2838C112 9.72409 110.031 9.22726 108.042 8.81721C97.355 6.07489 100.557 6.89498 106.829 8.57856C103.4 7.90882 99.9325 7.45449 96.4464 7.21825C96.7073 7.34842 96.9659 7.47859 97.2267 7.62829C98.4517 7.68606 99.6719 7.81938 100.88 8.02749L99.6263 7.96458C97.2463 7.55453 97.4637 7.59575 99.3676 7.94288L97.4854 7.81271C99.9306 9.11227 102.352 10.5008 104.71 11.9913C105.403 12.0781 107.047 12.4447 105.208 12.0347C108.842 12.5293 106.96 12.4013 104.773 12.0564C105.01 12.2061 105.293 12.3579 105.53 12.5293L105.94 12.5944C105.919 12.5727 105.897 12.5727 105.856 12.5727C106.655 12.6595 107.477 12.7897 108.277 12.9199L108.19 12.8982L109.683 13.1563C109.618 13.1346 109.509 13.1129 109.509 13.1129C110.137 13.2214 110.764 13.3509 111.391 13.5013C110.305 12.8504 104.188 9.70239 105.358 9.8304C108.401 10.5876 112.993 13.0262 115.675 14.5817C116.714 14.905 117.708 15.2326 118.718 15.6188C119.627 15.9637 119.692 16.0288 118.653 15.7468C117.962 15.5537 117.29 15.3367 116.599 15.1437C117.206 15.5103 117.81 15.8987 118.416 16.287C118.503 16.3304 118.892 16.5907 119.001 16.6754C119.87 16.9357 121.748 17.669 119.436 16.9574C119.87 17.259 120.322 17.5605 120.755 17.886C121.057 17.9706 121.359 18.0574 121.642 18.1441C124.25 19.3743 124.539 19.5045 121.966 18.2526C123.3 18.7164 124.606 19.2568 125.878 19.8711C126.873 20.4547 123.737 19.1812 123.672 19.1595C122.763 18.7495 121.833 18.3394 120.881 17.9706C127.026 22.4854 133.487 28.033 139.399 32.9991C145.585 38.3558 149.111 42.8685 153.027 50.1387C153.74 51.5619 154.412 52.9591 155.038 54.4344C156.514 57.944 157.687 61.5731 158.544 65.2822C158.544 64.6573 158.585 64.5272 158.824 65.2171C158.5 64.0737 158.239 62.7568 158.78 64.7832C158.911 65.28 159.017 65.7551 159.126 66.2303C159.343 67.0721 159.537 67.8922 159.732 68.7361C159.689 68.7773 159.646 68.799 159.602 68.8424C160.598 74.0689 160.619 76.6376 160.424 81.7773C160.295 84.9514 160.252 88.0691 160.035 91.2561C160.165 90.2625 160.295 89.2905 160.38 88.2969C160.339 90.0477 160.23 91.8181 160.056 93.5667C159.926 94.1503 159.798 94.7318 159.667 95.3154C159.624 95.5953 159.58 95.8773 159.559 96.1572C159.689 95.6387 159.819 95.1201 159.948 94.5821C159.841 95.2937 159.754 95.9836 159.624 96.6974C159.819 95.7688 159.991 94.862 160.143 93.9334C162.458 83.4175 161.765 86.6133 160.339 92.7683C160.9 89.1295 161.225 85.4581 161.31 81.7773C161.31 81.2588 161.332 80.7186 161.332 80.1784C161.247 78.2149 161.03 76.2276 160.921 74.262C160.878 72.5567 161.484 77.998 161.484 77.998C161.55 79.2715 161.702 80.5255 161.808 81.7773C161.852 82.3393 161.873 82.8773 161.895 83.4392C161.528 90.0889 161.332 95.3588 161.917 84.5847C162.006 88.5333 161.715 92.4812 161.047 96.3741C160.83 98.0577 160.613 99.8281 160.178 101.49C160.265 101.384 160.33 101.297 160.415 101.188C160.826 99.8064 161.756 96.5238 160.826 100.498C160.806 100.626 160.763 100.778 160.741 100.932C160.763 100.911 160.806 100.889 160.826 100.846C161.13 99.6133 161.389 98.3615 161.628 97.1096C161.952 95.5107 162.21 93.8922 162.406 92.2737C162.384 92.6403 162.362 92.9853 162.319 93.3302L162.06 95.771C162.017 96.2049 161.756 97.5414 161.865 97.153C161.778 97.6498 161.693 98.1467 161.606 98.6218C164.049 89.0757 160.004 105.855 162.773 95.1006C162.817 94.799 162.838 94.4497 162.904 94.1308C163.573 90.0471 163.92 85.9174 163.943 81.7795C163.954 81.5627 163.954 81.3455 163.943 81.1286C163.945 81.3462 163.959 81.5636 163.986 81.7795C164.008 82.1896 164.027 82.6213 164.027 83.0313C164.049 82.6213 164.049 82.1896 164.071 81.7795C164.071 81.7795 164.071 79.8573 164.158 80.7642C164.179 80.4843 164.223 80.916 164.223 80.9377C164.245 81.2176 164.245 81.4975 164.266 81.7795C164.525 87.0472 164.525 91.3256 164.375 81.7795C164.288 79.124 164.093 76.6181 163.747 73.9691C163.79 74.5961 163.834 75.2209 163.856 75.8479C163.944 76.3756 163.987 76.9098 163.986 77.4447L163.921 76.9913C163.943 76.3404 163.943 76.3231 163.921 76.9913C163.921 76.9913 163.899 76.6463 163.877 76.4728C163.943 78.2453 163.943 79.994 163.877 81.786C163.877 81.3977 163.877 80.9876 163.856 80.5971V80.7707C163.856 79.8204 163.812 78.8484 163.769 77.8982C163.725 77.3384 163.703 76.7765 163.66 76.2146V76.3882C163.401 72.6088 162.86 69.1982 162.21 65.4839C161.821 62.8501 163.595 72.1337 163.638 72.4786C163.725 73.5157 163.812 74.0776 163.986 75.1146C163.812 73.7109 163.617 70.8818 164.027 74.2273C164.136 75.3728 164.288 76.5162 164.31 77.6834C164.482 79.0654 164.634 80.404 164.699 81.786C164.742 82.5627 164.742 82.5193 164.721 81.786L164.655 78.677C164.419 74.3574 163.899 70.9035 163.134 66.6924C163.049 66.1305 163.199 66.6924 163.243 66.8443C159.911 50.5726 164.866 73.3638 163.653 68.1178C164.55 72.6195 165.013 77.1963 165.038 81.786C165.038 83.4045 164.973 84.9818 164.845 86.622C164.801 87.1188 164.736 87.6373 164.692 88.1558C164.605 89.5378 164.519 90.9199 164.369 92.3019C164.951 88.9542 164.043 97.4828 163.675 97.6347C163.395 98.8214 163.091 100.01 162.745 101.197C163.049 99.9669 163.567 98.1098 163.719 96.9209C162.788 99.7717 165.99 84.2246 162.443 100.377C162.284 102.062 161.951 103.727 161.447 105.343C161.926 104.139 162.36 102.937 162.795 101.729C162.777 101.762 162.77 101.8 162.773 101.837C163.532 100.216 161.843 105.766 161.65 106.434C161.26 107.537 161.174 107.795 161.606 106.608C161.171 108.443 162.515 103.757 162.58 103.542C162.169 105.334 161.671 107.126 161.13 108.897C160.784 109.869 160.393 110.797 159.982 111.748C159.572 112.698 158.989 113.798 158.641 114.748C159.117 113.754 159.593 112.783 160.026 111.769C160.287 111.186 160.545 110.602 160.784 110.019C159.789 113.056 160.698 110.947 160.654 110.732C160.913 110.081 161.152 109.459 161.389 108.81V108.897C162.493 105.788 162.838 103.887 163.532 100.822C164.836 94.2783 167.77 76.9392 164.525 98.4461C164.808 97.3027 165.066 96.1572 165.284 94.9921C165.131 96.2657 164.742 98.7042 164.829 98.4244C164.612 99.5482 163.227 105.896 162.686 106.198C161.973 108.098 161.217 110.084 160.48 111.941C160.33 112.307 160.156 112.676 160.004 113.043C159.919 113.214 159.787 113.477 159.898 113.086C160.004 112.761 160.091 112.435 160.2 112.114C159.961 112.611 159.724 113.108 159.465 113.605C158.403 116.322 157.152 118.962 155.722 121.506C154.9 123.254 153.956 124.943 152.897 126.559C151.836 128.006 154.26 123.687 154.325 123.58C154.41 123.417 154.503 123.259 154.605 123.105C155.492 121.37 156.294 119.693 157.05 117.879C157.872 116.195 158.628 114.468 159.322 112.739C159.256 112.934 159.191 113.151 159.126 113.344C159.387 112.804 159.624 112.244 159.841 111.683C160.252 110.689 160.771 109.415 161.074 108.4C161.03 108.335 159.885 110.884 159.552 111.552C157.861 115.076 155.915 118.472 153.727 121.712C152.316 124.055 150.771 126.315 149.102 128.481C147.005 131.068 144.755 133.527 142.364 135.845C142.147 136.038 133.887 143.078 137.215 140.442C137.174 140.464 133.972 143.48 134.794 142.56C135.161 142.171 135.528 141.803 135.896 141.436L136.869 140.594C135.565 141.566 134.261 142.495 132.911 143.402C132.24 144.007 131.29 144.545 130.553 145.137C131.225 144.703 131.872 144.252 132.522 143.777C131.006 145.129 129.393 146.371 127.697 147.491C126.487 148.268 128.671 146.541 128.714 146.519C128.543 146.628 128.369 146.758 128.195 146.886C125.232 148.873 118.677 152.631 126.334 147.556C127.286 147.016 128.564 146.346 129.364 145.634C128.867 145.936 128.347 146.218 127.843 146.519C129.94 145.181 132.018 143.755 133.966 142.221C133.906 142.285 133.84 142.343 133.77 142.395C133.424 142.655 133.164 142.829 133.683 142.46L133.555 142.59C139.386 138.997 138.669 139.503 133.957 142.193C137.395 139.514 136.422 140.01 133.631 141.889C134.844 140.939 136.054 139.904 137.243 138.911C138.26 137.939 139.278 136.945 140.251 135.93C139.546 136.797 138.764 137.599 137.915 138.327C139.191 137.242 140.338 136.157 141.505 134.979C143.69 132.734 148.515 127.056 142.825 133.081C142.349 133.448 141.895 133.814 141.397 134.181C146.222 129.345 147.585 128.006 140.899 134.051L141.029 133.923C140.964 133.966 140.749 134.116 140.706 134.159C140.401 134.398 140.143 134.634 139.862 134.873L140.36 134.376C139.58 134.895 138.823 135.411 138.023 135.895C138.708 135.107 139.461 134.381 140.273 133.725C140.382 133.66 141.44 132.775 141.182 133.595L141.31 133.467C141.44 133.079 141.981 132.647 142.305 132.452C142.588 132.278 141.436 133.359 141.397 133.424C141.419 133.424 141.353 133.51 141.375 133.51C141.895 133.077 142.588 132.194 143.214 131.61C142.127 132.235 141.051 132.818 139.954 133.402C139.48 133.66 138.982 133.921 138.484 134.179C138.289 134.374 138.117 134.567 137.943 134.741C138.03 134.676 138.202 134.524 138.202 134.524C138.073 134.654 136.246 136.641 137.165 135.561C136.689 136.036 136.213 136.511 135.715 136.964C135.713 137.016 135.721 137.067 135.737 137.116L135.283 137.374C133.509 139.017 130.155 141.865 134.265 137.936C134.244 137.958 132.081 139.123 132.47 138.587L132.34 138.717C130.934 139.754 131.02 139.733 132.212 138.848C131.518 139.475 129.182 141.308 131.281 139.475L132.968 138.114C132.854 138.208 132.745 138.309 132.644 138.416C133.731 137.466 134.937 136.559 136.039 135.63C136.013 135.762 135.977 135.892 135.93 136.018C136.278 135.674 136.624 135.329 136.969 134.981C136.689 135.133 136.385 135.263 136.1 135.415C136.056 135.459 135.58 135.869 135.861 135.546C132.724 137.145 128.919 138.893 126.106 140.987C123.924 142.677 121.624 144.211 119.225 145.578C118.004 146.258 116.739 146.857 115.439 147.37C114.302 147.833 113.141 148.237 111.961 148.578C110.979 149.066 109.968 149.492 108.933 149.854C107.194 150.479 105.456 151.062 103.697 151.559C102.334 151.882 100.95 152.164 99.5872 152.379C100.194 152.249 100.8 152.099 101.426 151.945C104.469 151.427 104.434 151.427 101.837 151.837C102.941 151.557 104.023 151.255 105.125 150.952C112.676 148.06 100.972 151.73 98.9177 152.01C101.309 151.772 98.8525 152.054 98.1592 152.119C100.648 151.644 90.7193 153.091 89.1174 153.175C88.5131 153.197 87.885 153.197 87.2786 153.219C80.206 153.219 74.431 152.637 67.5518 151.049C66.2325 150.683 64.8915 150.338 63.5939 149.964C63.4635 149.858 59.4642 148.368 59.0295 148.172C57.7058 147.656 56.4278 147.096 55.2063 146.445C54.0609 145.883 52.935 145.259 51.8309 144.632C52.5242 145.194 53.3023 145.755 54.0391 146.274C54.5151 146.532 55.0542 146.834 54.1022 146.296C55.6823 147.007 56.0279 147.309 54.2543 146.424C54.5782 146.684 54.9477 146.921 55.315 147.181C56.743 147.806 60.6792 149.511 56.3105 147.849C57.0489 148.32 57.8395 148.705 58.6665 148.995C59.5968 149.34 60.4836 149.728 61.3704 150.138C60.4229 149.876 59.4917 149.559 58.5818 149.188C58.0406 148.951 57.9536 148.908 58.5818 149.209C58.7585 149.287 58.9312 149.374 59.0991 149.47C59.0991 149.47 58.6252 149.318 58.6035 149.318C60.0076 150.138 60.614 150.312 62.1724 150.871C62.125 150.848 62.0732 150.834 62.0203 150.83C62.5135 151.052 63.0219 151.239 63.5417 151.39C63.3026 151.325 63.0875 151.284 62.8701 151.218C63.3048 151.412 63.7569 151.607 64.1894 151.8C65.1849 152.039 67.1541 152.427 67.1541 152.427C71.2162 153.483 75.3644 154.177 79.5496 154.499C77.7543 154.477 75.959 154.391 74.1637 154.241C66.8954 152.644 61.4878 151.585 73.0399 154.11C72.3031 154.024 71.5902 153.939 70.8556 153.831C72.4553 154.176 74.0767 154.436 75.6786 154.737C77.6695 155.171 69.2754 153.809 68.6473 153.653C59.8663 151.342 69.9688 154.304 67.9779 154.106C68.4538 154.301 68.9081 154.473 69.3841 154.69C69.2972 154.388 69.232 154.106 69.145 153.822C70.1188 154.123 73.2986 155.009 72.6726 154.965C74.5962 155.44 79.2258 156.369 73.8398 155.399C74.2289 155.983 68.2148 154.343 71.9575 155.66C72.0228 155.66 76.4784 156.284 75.1374 156.243C74.3375 156.156 73.5406 156.048 72.7465 155.918C73.8724 156.328 74.9765 156.803 76.2241 156.89C80.6798 157.625 80.3777 157.582 76.7653 156.933C79.0367 157.128 81.2645 157.213 83.5358 157.367C85.3529 157.541 79.4909 157.41 79.4692 157.41C77.5652 157.215 74.5571 156.634 78.4085 157.647C81.2196 157.907 84.0428 158.016 86.8656 157.972C84.9203 158.122 82.9946 158.189 81.0471 158.209C80.8298 158.187 80.6124 158.144 80.3951 158.144C81.7803 158.447 83.1641 158.729 84.5465 158.988C85.4159 158.988 86.2853 158.988 87.1438 158.966C88.9826 158.923 90.7779 158.836 92.6167 158.684C90.7779 158.944 88.9826 159.159 87.1438 159.311C87.0786 159.311 86.733 159.333 86.6244 159.333C86.799 159.341 86.9726 159.363 87.1438 159.398L88.5501 159.591C91.3191 159.289 94.086 159.072 96.8333 158.749C96.3791 158.706 95.9031 158.684 95.4271 158.641C96.5408 158.519 97.6605 158.462 98.7808 158.469C98.846 158.469 98.9112 158.447 98.9764 158.447C98.9093 158.451 98.8433 158.466 98.7808 158.491C99.3655 158.469 99.9284 158.491 100.489 158.469C102.589 157.929 104.599 157.475 106.699 156.935C106.525 156.87 106.568 156.848 106.547 156.718C105.812 156.868 104.904 156.955 104.21 157.172C104.925 157.063 105.66 156.933 106.373 156.803C104.058 157.517 96.466 159.309 103.765 157.278C103.073 157.365 103.613 157.278 103.939 157.213C104.847 156.955 106.664 156.371 106.664 156.371C107.377 156.243 108.092 156.091 108.805 155.918C108.177 156.178 107.551 156.393 106.923 156.631C107.918 156.458 109.001 156.328 109.966 156.026C109.91 156.052 109.853 156.074 109.794 156.091C114.034 155.293 108.388 156.89 107.284 157.02C102.33 158.035 100.967 158.358 106.766 157.213C105.273 157.688 103.802 158.081 102.287 158.445C103.002 158.424 103.715 158.38 104.46 158.337C104.523 158.315 104.567 158.315 104.632 158.293C104.61 158.315 104.567 158.315 104.545 158.337C107.805 158.141 106.753 158.228 104.351 158.771C105.671 158.575 105.606 158.597 104.178 158.836L101.28 159.27L100.176 159.528C99.9393 159.571 90.0955 161.105 93.3622 160.37C92.7558 160.37 92.1516 160.35 91.5452 160.307C91.3931 160.328 90.5715 160.413 91.2431 160.285C89.8803 160.177 88.5175 160.046 87.133 159.875C86.1592 159.767 85.2072 159.615 84.2552 159.463C79.7778 159.593 74.6505 159.356 70.3035 158.363C66.7563 157.456 77.939 158.686 78.8258 158.708C79.6474 158.773 80.4473 158.838 81.271 158.881C80.2321 158.664 79.1931 158.406 78.1564 158.146C73.9593 157.929 69.2211 157.369 65.2197 156.161C62.3941 155.254 67.8148 156.31 68.0105 156.354C67.88 156.269 67.404 155.965 67.7714 155.835C68.6169 156.139 69.4819 156.419 70.347 156.679C71.9467 156.896 73.5485 157.068 75.1482 157.282C73.8072 156.872 72.4879 156.441 71.1686 155.965C70.7578 155.879 70.347 155.794 69.9579 155.686C70.3252 155.772 70.7143 155.857 71.0816 155.922C70.9647 155.893 70.8493 155.857 70.736 155.816C70.7941 155.826 70.8515 155.839 70.9077 155.857C69.8058 155.447 68.6799 154.989 67.5997 154.518C67.1237 154.39 66.6259 154.26 66.1499 154.13C66.5846 154.238 67.0193 154.347 67.4258 154.455L67.1019 154.325L67.1889 154.347C66.6259 154.108 66.063 153.85 65.5 153.59C64.2894 153.288 63.0788 152.939 61.8877 152.577C62.9918 152.943 64.0938 153.31 65.1979 153.698C67.0802 154.349 59.0121 151.863 58.4275 151.626C58.1471 151.518 57.8863 151.409 57.6276 151.301C57.0212 151.043 56.4583 150.867 55.8323 150.65C56.4148 150.886 57.0212 151.125 57.6059 151.362C58.3405 151.665 58.1884 151.687 57.5624 151.47C57.238 151.367 56.9201 151.244 56.6104 151.103C55.6367 150.693 54.902 150.327 53.8848 149.936C54.6195 150.24 56.1561 150.973 54.3391 150.197L53.3654 149.743C53.1284 149.635 52.8676 149.526 52.6307 149.42C46.3993 146.202 41.8349 143.957 51.6135 149.01C51.0723 148.771 50.5094 148.535 49.9703 148.274C50.7702 148.708 51.5483 149.142 52.3482 149.548C54.037 150.327 55.7236 151.017 57.432 151.73C57.6059 151.815 57.7993 151.88 57.9732 151.967C57.9732 151.967 58.4492 152.162 58.2753 152.14C60.0706 152.744 61.8659 153.284 63.6395 153.889C64.1155 154.061 63.7482 153.998 63.533 153.954L65.0241 154.471C65.0893 154.492 64.6785 154.386 64.8523 154.451C64.8523 154.429 64.9175 154.492 64.9175 154.492C65.024 154.536 65.1762 154.536 65.2631 154.579C65.2654 154.563 65.2731 154.547 65.2849 154.536C67.967 155.315 70.347 156.07 65.437 154.601L65.9543 154.774C67.4758 155.508 65.7609 154.796 65.3283 154.644C65.2631 154.883 64.2242 154.408 64.1155 154.364C63.3591 154.169 62.5941 153.867 61.8659 153.607C61.9746 153.629 62.0833 153.672 62.2137 153.694C61.7594 153.544 61.3269 153.371 60.8727 153.219C61.4769 153.479 62.668 153.954 62.668 153.954C60.8177 153.471 58.9975 152.88 57.2168 152.184C54.5543 151.125 54.1217 150.824 57.345 151.88C53.1227 150.399 49.0871 148.433 45.319 146.022C44.93 145.764 44.5409 145.504 44.1279 145.224C43.0042 144.532 41.9001 143.82 40.7981 143.087C40.17 142.696 39.5636 142.33 38.9593 141.941C40.4308 143.106 41.9653 144.23 43.5237 145.311C43.8258 145.46 44.4105 145.764 44.4105 145.764C45.2799 146.283 46.1189 146.777 47.0057 147.283C46.6384 147.111 46.271 146.938 45.9189 146.786C43.8215 145.426 44.0171 145.578 45.7472 146.701C45.7472 146.701 45.1625 146.398 44.8604 146.248C48.538 148.795 38.2399 141.928 37.3966 141.258C35.8751 139.939 34.3906 138.559 32.9844 137.136C33.2865 137.611 32.4649 136.832 32.2063 136.596C31.2108 135.689 30.2501 134.717 29.2851 133.775C28.4852 132.868 28.2896 132.69 29.1547 133.645C29.1547 133.645 28.6569 133.192 28.42 132.955C29.3937 133.992 30.3892 135.005 31.426 135.992C30.0001 134.741 28.6374 133.445 27.2963 132.107C26.779 131.48 26.2595 130.833 25.7401 130.206C25.827 130.315 26.8855 131.725 26.2378 130.983C26.2378 131.157 25.4597 130.228 25.438 130.206C27.4485 132.688 29.3503 134.892 31.7411 137.073C32.0215 137.309 32.2823 137.57 32.5627 137.806C32.3019 137.548 32.0215 137.309 31.7629 137.051C30.2262 135.561 30.2414 135.452 31.9346 136.899L33.2539 138.023C32.7996 137.505 33.1691 137.893 33.3843 138.129C34.1189 138.735 35.5904 139.902 35.5904 139.902C35.9795 140.29 36.3707 140.657 36.7598 141.045C37.6456 141.784 38.5699 142.476 39.5288 143.117C41.0198 144.176 42.5717 145.213 44.1562 146.155L43.1042 145.578L43.1694 145.643L40.8981 144.282C40.5069 144.024 39.5353 143.375 39.7288 143.549C36.1816 141.195 34.408 140.353 31.3999 137.372C29.4632 135.381 27.6432 133.281 25.9487 131.081C25.3054 130.46 24.7056 129.796 24.1534 129.093C24.0686 128.965 23.9165 128.727 24.1534 128.965C24.3903 129.204 24.6511 129.462 24.8902 129.699C22.8124 126.956 20.628 124.275 18.8044 121.341C11.1037 110.201 14.4791 114.583 19.3673 121.667C19.1283 121.257 18.9131 120.868 18.6957 120.456C18.8286 120.694 18.9737 120.925 19.1304 121.148C17.6477 118.268 16.3335 115.305 15.1942 112.273C14.9769 111.648 14.7595 111.043 14.5422 110.418C14.7791 111.021 15.0377 111.626 15.2768 112.231C16.5961 115.447 18.2828 119.465 19.9716 122.487C19.1478 120.738 18.3914 119.016 17.7003 117.241C19.0044 119.788 20.4041 122.164 21.9386 124.602C21.9867 124.643 22.024 124.695 22.0473 124.754C22.0255 124.732 22.0255 124.711 22.0038 124.689C22.8429 126.069 23.7692 127.393 24.7772 128.655C24.6251 128.505 24.4751 128.332 24.3229 128.18C25.4271 129.584 26.5943 130.966 27.7832 132.283C28.0223 132.478 28.4113 132.823 28.6069 133.018C27.6549 131.959 26.7247 130.9 25.8379 129.779C23.267 126.219 21.009 122.445 19.0891 118.497C20.1042 120.311 21.2083 122.103 22.3755 123.83C22.6798 124.392 27.3746 132.013 25.9661 129.811C25.9661 129.79 25.9226 129.746 25.9226 129.725C24.9294 128.128 23.9665 126.529 23.0971 124.867C25.1209 127.815 27.3087 130.648 29.6502 133.352C30.0393 133.719 30.4088 134.107 30.7978 134.476C30.6022 134.302 30.387 134.129 30.1697 133.957C30.9261 134.799 31.7064 135.533 32.5062 136.331C32.5279 136.374 32.7236 136.526 32.7649 136.591C40.1852 144.365 38.216 142.291 33.6103 137.39C34.6471 138.362 35.7078 139.29 36.7902 140.197C39.7309 141.989 33.2408 135.921 33.0952 135.771C26.779 128.926 23.5318 123.982 18.9913 116.013C18.7957 115.733 18.5805 115.473 18.3849 115.193C17.9307 113.984 17.5155 112.752 17.1091 111.505C15.5072 106.69 15.5072 107.79 16.6548 111.7C16.7852 112.175 16.9352 112.628 17.1091 113.104C16.8917 112.67 16.6548 112.218 16.4375 111.787C15.0643 109.064 13.9143 106.234 12.999 103.325C12.999 103.282 12.8686 102.807 12.8903 102.785C12.3056 100.93 11.7883 99.0297 11.3341 97.1074C11.1819 96.3091 11.0732 95.489 10.9646 94.6667C10.9646 94.6667 10.4886 92.3995 10.7472 93.135C10.8776 93.6535 11.0276 94.1916 11.1819 94.7318C11.2471 95.1201 11.3341 95.5107 11.4188 95.899C11.2015 94.2783 11.0298 92.6815 10.9233 91.0609C10.4473 87.7805 11.358 96.7842 10.6842 90.3493C10.5755 90.2191 10.4886 90.1106 10.3821 90.0043C10.2082 89.7874 10.056 89.5943 9.88433 89.399C9.94954 88.5138 10.056 87.6069 10.1865 86.7435C10.0709 85.9634 9.99838 85.1775 9.9691 84.3895C9.88216 85.663 9.92563 86.3551 9.81695 84.6911C9.77348 85.4916 9.79522 85.3181 9.81695 84.6911C9.90389 83.7213 9.99084 82.771 10.0973 81.799C10.0973 81.7773 10.1191 81.6689 10.1191 81.6472C10.1191 81.6255 10.2277 76.9414 10.3799 78.8831C10.5299 76.7678 10.769 74.672 11.0928 72.5567C10.8755 72.9234 11.0711 71.153 11.0711 71.153C11.0493 71.2181 10.8342 72.7086 10.8776 71.8885C10.8776 71.7366 10.8994 71.5631 10.8994 71.4134C10.9407 70.9794 10.9841 70.5455 11.0493 70.1116C10.8994 70.2179 10.832 69.9814 10.8124 69.8947C10.769 72.0317 10.5516 74.1275 10.4864 76.2645C10.4668 75.6809 10.4451 75.1211 10.4451 74.5592C10.7472 71.6216 10.7907 70.8449 10.4451 74.1709C10.441 72.6405 10.5346 71.1115 10.7255 69.5931C10.7255 69.5714 10.7907 69.118 10.7907 69.4195C11.0711 68.6645 11.5253 67.6839 11.6992 66.9376C11.6775 67.0005 11.6775 67.0656 11.6557 67.1089C11.7209 66.9788 11.7644 66.8291 11.8296 66.675C12.0665 65.1563 12.3687 63.6528 12.7164 62.1623C12.5643 62.5963 12.4128 63.0302 12.2622 63.4641C12.3904 62.7525 12.5425 62.017 12.6969 61.3054C12.9555 60.3985 13.4315 59.4916 13.6488 58.6064C13.3446 59.3615 13.0642 60.0969 12.7794 60.8519C13.3424 58.5197 15.6572 51.1128 13.7314 58.3483C15.3551 54.0504 14.5552 56.6625 13.8836 59.65C13.9488 59.5632 14.3183 59.0447 14.3813 59.4113C14.0357 60.2792 13.688 61.16 13.3641 62.0452L12.2578 67.7859C12.3462 67.7265 12.4401 67.6756 12.5382 67.634C12.0305 69.2826 11.6612 70.9706 11.434 72.6804C11.434 72.5936 11.5862 72.3983 11.5862 72.3983C11.4992 73.0253 11.4123 73.6306 11.3493 74.2555C11.5637 73.1331 11.8014 72.0107 12.0622 70.8883C12.2795 69.0529 12.7751 67.0656 13.2076 65.2475C13.0577 66.1153 12.9055 66.9961 12.7729 67.8509C11.7579 72.2139 11.8427 71.9536 12.7099 68.3912L12.5143 69.5584C12.8599 68.3695 13.2489 67.161 13.6402 65.996C13.7249 65.5425 13.8119 65.1108 13.8988 64.6552C13.7032 64.2451 13.5315 63.8351 13.3576 63.425C13.4228 63.2753 13.488 63.1452 13.5532 62.9911C13.9879 60.5308 14.7421 58.307 15.6289 55.9748C15.4355 56.5996 15.2399 57.2266 15.0442 57.8731C13.8336 61.0689 13.9857 60.7456 14.9595 58.2203C14.5487 59.6674 14.1357 61.1123 13.7467 62.5811C16.1919 57.5499 15.0029 61.0624 14.3096 63.553C14.3096 63.5313 14.3313 63.4663 14.3531 63.4663C14.3748 63.4663 14.1357 64.3948 14.0292 64.87C14.29 64.1468 14.5719 63.4236 14.8747 62.7004C14.9834 62.1819 15.1116 61.6633 15.242 61.1448C15.2807 61.0623 15.3098 60.9757 15.329 60.8867C15.3507 60.2358 15.981 58.5761 16.2158 57.9057C16.1506 58.166 16.0636 58.4025 15.9984 58.6629C15.5441 59.8496 15.5224 59.9646 15.9549 58.8342C15.9549 58.8342 15.7832 59.4179 15.718 59.7021C15.9767 58.8798 16.2592 58.0814 16.5396 57.2613C17.0676 55.4886 17.7034 53.7497 18.4436 52.0544C18.724 51.3861 19.0283 50.7374 19.313 50.0692C19.7673 49.1407 20.0477 48.5353 20.4606 47.5634C19.8759 48.774 18.4262 51.5163 19.9412 48.3423C20.4172 47.3703 20.8497 46.6348 21.3039 45.6433C20.8932 46.4634 20.1781 47.7369 21.0431 46.01C21.217 45.7062 21.3692 45.4264 21.5409 45.1248C21.6713 44.8861 21.7799 44.628 21.9082 44.3893C23.0949 42.3065 24.3425 40.3539 25.6683 38.4013C24.5012 40.022 23.4188 41.6839 22.3798 43.3913C22.6841 42.8099 22.9862 42.248 23.2884 41.6557C22.7689 42.4758 22.2733 43.2763 21.7669 44.0964C20.7932 45.9536 19.9064 47.8541 18.9544 49.6896C18.9544 49.6896 18.7153 50.1842 18.737 50.0128C18.5001 50.616 18.2393 51.243 18.0024 51.87C17.5481 53.035 17.0939 54.2239 16.6179 55.389C16.3788 55.9292 16.5527 55.3456 16.5961 55.1937C16.2723 55.9943 15.968 56.8144 15.6876 57.6128C15.7745 57.3112 15.8615 56.9858 15.9462 56.6625C15.938 56.7242 15.9165 56.7834 15.8832 56.8361C15.905 56.8361 15.8615 56.9229 15.8615 56.9229C15.905 56.8361 15.8832 56.9663 15.8397 57.0075C15.8615 57.0075 15.8397 57.0943 15.8397 57.0943C15.6007 57.7451 15.3637 58.396 15.1464 59.0599C15.332 58.3612 15.5636 57.6756 15.8397 57.0075C15.6032 57.5244 15.4077 58.059 15.2551 58.6064C14.8204 59.7064 14.7139 60.1251 15.1681 58.8646C14.8443 60.0318 14.1292 62.1472 14.8877 59.535C15.0595 58.9731 15.2551 58.3895 15.4507 57.8297C15.4463 57.889 15.4316 57.9469 15.4072 58.0011C15.5137 57.6996 15.6246 57.3763 15.7311 57.0726C15.5789 56.771 15.968 56.1006 16.0984 55.8641C16.3375 55.1091 16.7048 54.3454 17.0069 53.6186C16.9878 53.7077 16.9586 53.7943 16.92 53.8768C17.1225 53.4768 17.3031 53.0662 17.4612 52.6467C17.1808 53.2086 16.6396 54.3519 16.6396 54.3519C16.9417 53.4451 17.246 52.5816 17.5916 51.6964C18.0263 50.6376 21.4409 43.1245 19.113 49.0625C20.9038 44.8222 23.1762 40.801 25.8857 37.0779C26.1661 36.6679 26.4682 36.2795 26.7725 35.8911C27.5723 34.7478 28.3722 33.624 29.2155 32.5218C29.2155 32.5218 28.3939 33.5155 28.633 33.1054C28.4374 33.3007 28.2418 33.5155 28.0483 33.7107L28.7395 32.9536C29.2207 32.2281 29.7409 31.5292 30.2979 30.8599C30.0806 31.0552 29.8871 31.2483 29.6698 31.4436C29.4329 31.7451 29.172 32.0684 28.9351 32.3938C29.1525 32.0901 29.3698 31.7885 29.6046 31.5086C29.5828 31.5086 29.5415 31.552 29.5198 31.552C29.4546 31.6583 29.3025 31.8536 29.3025 31.8536C29.3581 31.7773 29.4089 31.6976 29.4546 31.6149C29.259 31.8102 29.5415 31.4869 29.5611 31.4652C29.8437 31.0769 30.6479 30.0182 29.8219 31.2049C30.4914 30.5367 30.8826 30.1483 31.4868 29.4345C31.5086 29.4128 33.456 27.1023 32.7909 28.0959C33.2887 27.5557 33.8081 27.0372 34.3276 26.5425C34.7167 26.152 35.1275 25.7853 35.5165 25.4187C35.1275 25.807 34.7601 26.1954 34.3928 26.6054C33.7864 27.2758 33.1822 27.8377 32.5106 28.4626C32.4652 28.5506 32.4066 28.6311 32.3367 28.7012C32.6844 28.378 33.3539 27.7293 33.3539 27.7293L32.4236 28.788C32.6627 28.5711 32.8996 28.378 33.1387 28.161C33.593 27.6859 34.0472 27.189 34.5232 26.7139C34.9992 26.2388 35.473 25.7853 35.949 25.3102C36.0577 25.2234 36.1881 25.1388 36.3185 25.0303C37.1154 24.077 37.9876 23.1889 38.9267 22.3748C37.9095 23.1732 36.9141 24.0584 35.8556 24.8351L35.7904 24.9002L35.8556 24.8351C34.3189 25.8938 38.8833 21.7695 39.381 21.316C40.4678 20.4092 40.5264 20.3441 39.5332 21.1859L40.3352 20.394C39.2093 21.3659 38.1073 22.3466 37.0467 23.3533C38.3877 21.9713 39.7722 20.6326 41.2002 19.3569C42.0436 18.7061 44.9647 16.5083 42.1305 18.5585C43.3194 17.5432 45.7211 15.6882 42.65 17.9749C42.2153 18.3004 41.8066 18.6258 41.3719 18.9469C41.222 19.0771 41.0916 19.1855 40.9372 19.3157L41.0024 19.2506C39.3375 20.5524 37.7161 21.9279 36.1577 23.3533C35.7904 23.6982 35.4643 24.0866 35.1188 24.4532C38.4942 21.1707 36.7424 23.1146 34.7949 25.2104C35.3361 24.757 34.9036 25.1236 34.6645 25.3384C34.4276 25.5988 34.1668 25.8786 33.9299 26.1368C33.5191 26.5924 33.1083 27.0437 32.7192 27.5188C32.3062 27.8876 31.8737 28.276 31.4629 28.6643C29.3997 30.9702 27.4991 33.4161 25.7748 35.9844C26.0118 35.5961 26.2508 35.2273 26.4878 34.8606C26.4443 34.9257 26.4008 34.9691 26.3791 35.0125C28.2644 32.152 30.3435 29.4236 32.6018 26.8463C31.715 27.7531 30.85 28.66 30.0067 29.5886C32.4497 26.4796 29.7458 29.8055 29.0112 30.6256C27.6267 32.4177 26.403 34.4245 25.1597 36.3251C22.5067 40.0483 20.1797 43.9927 18.2045 48.1145C18.9392 46.3007 19.739 44.5303 20.6258 42.7817C21.9669 40.4277 23.6339 38.397 25.1467 36.1949C23.7046 37.9818 22.3552 39.8414 21.104 41.7663C24.8902 34.7283 17.2764 48.416 16.757 49.4097C15.8484 51.1453 18.185 46.0837 18.2784 45.9384C17.8894 46.3267 18.8631 44.7929 18.8848 44.7495C18.9066 44.7061 18.8848 44.6432 18.9066 44.5564C18.8414 44.6648 18.7762 44.7495 18.9066 44.5564C19.3413 43.8643 19.7064 43.1961 20.1172 42.504C21.3735 40.4754 22.7254 38.4664 24.1621 36.5464C26.3217 33.1547 28.7959 29.9731 31.552 27.0437C32.115 26.5273 32.6996 25.9871 33.2908 25.4686C33.6169 25.1887 33.9429 24.9067 34.2646 24.6485C35.2166 23.6765 37.3792 21.5178 38.3942 20.9993C39.6636 19.9601 40.9829 18.9642 42.3239 18.0075C47.9751 13.9916 52.6872 10.4292 59.3055 8.46141C73.3877 4.31755 81.5644 2.76197 87.2525 3.53867C95.388 4.64081 80.482 -0.800445 58.397 6.21591C55.0433 7.41351 52.0373 8.67836 48.7706 10.0257C43.6237 12.0347 57.3364 5.16801 57.8776 4.97275C63.8265 2.70556 75.1396 -0.468502 87.6546 0.180196C89.2543 0.266978 74.0702 -1.39707 57.4776 3.9357C50.3616 6.22459 45.0387 9.50713 38.8094 13.6987L38.7985 13.6966Z" fill="#E83A40"/>
</svg>
