<svg width="160" height="160" viewBox="0 0 160 160" fill="none" xmlns="http://www.w3.org/2000/svg">
<circle cx="80" cy="80" r="78.5" stroke="#A7A7A7" stroke-width="3"/>
<path d="M91.4156 89.2113C89.8045 89.2113 88.4938 88.0768 88.4938 86.6824C88.4938 85.2879 89.8045 84.1534 91.4156 84.1534C93.0268 84.1534 94.3375 85.2879 94.3375 86.6824C94.3375 87.4158 94.9322 88.0105 95.6656 88.0105C96.399 88.0105 96.9938 87.4158 96.9938 86.6824C96.9938 84.2486 95.1803 82.2022 92.7438 81.6468V80.9561C92.7438 80.2227 92.149 79.6279 91.4156 79.6279C90.6822 79.6279 90.0875 80.2227 90.0875 80.9561V81.6468C87.6509 82.2022 85.8375 84.2486 85.8375 86.6824C85.8375 89.5414 88.3398 91.8675 91.4156 91.8675C93.0268 91.8675 94.3375 93.002 94.3375 94.3965C94.3375 95.791 93.0268 96.9255 91.4156 96.9255C89.8045 96.9255 88.4938 95.791 88.4938 94.3965C88.4938 93.6631 87.899 93.0684 87.1656 93.0684C86.4323 93.0684 85.8375 93.6631 85.8375 94.3965C85.8375 96.8303 87.6509 98.8767 90.0875 99.4321V100.006C90.0875 100.739 90.6822 101.334 91.4156 101.334C92.149 101.334 92.7438 100.739 92.7438 100.006V99.4321C95.1803 98.8767 96.9938 96.8303 96.9938 94.3965C96.9938 91.5373 94.4914 89.2113 91.4156 89.2113Z" fill="#A7A7A7"/>
<path d="M105.962 81.3119C104.227 78.6085 101.783 76.4453 98.8938 75.0563C98.2326 74.7384 97.439 75.0167 97.1213 75.6779C96.8035 76.339 97.0817 77.1324 97.7429 77.4503C102.778 79.8706 106.031 85.0422 106.031 90.6254C106.031 93.0144 105.442 95.3836 104.328 97.4773C103.984 98.1247 104.229 98.9291 104.877 99.2736C105.076 99.3793 105.289 99.4295 105.5 99.4295C105.975 99.4295 106.435 99.1737 106.673 98.7249C107.991 96.2488 108.687 93.4479 108.687 90.6254C108.687 87.3104 107.745 84.0898 105.962 81.3119Z" fill="#A7A7A7"/>
<path d="M93.5033 73.3595L93.4139 73.3594C92.6805 73.3594 92.0858 73.954 92.0858 74.6875C92.0858 75.421 92.6805 76.0156 93.4139 76.0156L93.4908 76.0158C93.493 76.0158 93.495 76.0158 93.4972 76.0158C94.2278 76.0158 94.8217 75.4253 94.8252 74.6939C94.8285 73.9603 94.2367 73.363 93.5033 73.3595Z" fill="#A7A7A7"/>
<path d="M85.1009 103.8C80.066 101.38 76.8127 96.2084 76.8127 90.6254C76.8127 88.2364 77.4016 85.8671 78.5155 83.7735C78.86 83.126 78.6145 82.3217 77.9669 81.9772C77.3196 81.6327 76.515 81.8782 76.1706 82.5258C74.853 85.0021 74.1565 87.8029 74.1565 90.6254C74.1565 93.9404 75.0988 97.1608 76.8815 99.9388C78.6165 102.642 81.0607 104.805 83.9501 106.195C84.1356 106.284 84.3316 106.326 84.5246 106.326C85.0192 106.326 85.4939 106.048 85.7226 105.573C86.0401 104.912 85.762 104.118 85.1009 103.8Z" fill="#A7A7A7"/>
<path d="M89.4299 105.234L89.353 105.233C88.6162 105.232 88.0223 105.822 88.0189 106.555C88.0155 107.289 88.6076 107.886 89.341 107.89L89.4299 107.89C90.1633 107.89 90.7581 107.295 90.7581 106.562C90.7581 105.828 90.1633 105.234 89.4299 105.234Z" fill="#A7A7A7"/>
<path d="M97.4527 68.866C97.291 68.4809 97.093 68.1179 96.8626 67.7812H100.32C103.689 67.7812 106.43 65.0405 106.43 61.6718C106.43 58.3032 103.689 55.5625 100.32 55.5625H89.6846C90.3608 54.5794 90.7577 53.3901 90.7577 52.1094C90.7577 48.7407 88.017 46 84.6484 46H52.1094C48.7407 46 46 48.7407 46 52.1094C46 55.478 48.7407 58.2187 52.1094 58.2187H62.745C62.0688 59.2018 61.6718 60.3911 61.6718 61.6718C61.6718 62.9526 62.0687 64.1419 62.745 65.125H59.2812C55.9126 65.125 53.1719 67.8657 53.1719 71.2343C53.1719 73.169 54.0768 74.8954 55.4848 76.0156C54.0768 77.1357 53.1719 78.8621 53.1719 80.7968C53.1719 82.7315 54.0768 84.4579 55.4848 85.578C54.0768 86.6982 53.1719 88.4246 53.1719 90.3593C53.1719 92.294 54.0768 94.0204 55.4848 95.1405C54.0768 96.2607 53.1719 97.9871 53.1719 99.9218C53.1719 103.29 55.9126 106.031 59.2812 106.031H74.9331C79.0564 110.441 84.9222 113.203 91.4219 113.203C103.871 113.203 114 103.075 114 90.625C114 80.2634 106.984 71.511 97.4527 68.866ZM100.32 58.2187C102.224 58.2187 103.773 59.7678 103.773 61.6718C103.773 63.5758 102.224 65.125 100.32 65.125H91.8202H67.7812C65.8771 65.125 64.3281 63.5758 64.3281 61.6718C64.3281 59.7678 65.8771 58.2187 67.7812 58.2187H100.32ZM52.1094 55.5625C50.2052 55.5625 48.6562 54.0134 48.6562 52.1094C48.6562 50.2054 50.2052 48.6562 52.1094 48.6562H84.6484C86.5525 48.6562 88.1015 50.2054 88.1015 52.1094C88.1015 54.0134 86.5525 55.5625 84.6484 55.5625H52.1094ZM59.2812 67.7812H91.8202C92.3552 67.7812 92.8675 67.9055 93.327 68.1281C92.6988 68.0754 92.0637 68.047 91.4219 68.047C85.187 68.047 79.5346 70.5875 75.4447 74.6874H59.2812C57.3772 74.6874 55.8281 73.1383 55.8281 71.2343C55.8281 69.3303 57.3772 67.7812 59.2812 67.7812ZM59.2812 77.3437H73.1754C71.6677 79.4093 70.502 81.7391 69.7617 84.2499H59.2812C57.3771 84.2499 55.8281 82.7009 55.8281 80.7968C55.8281 78.8928 57.3771 77.3437 59.2812 77.3437ZM59.2812 86.9062H69.1518C68.9504 88.1165 68.8438 89.3584 68.8438 90.625C68.8438 91.7069 68.9221 92.7708 69.0699 93.8124H59.2812C57.3771 93.8124 55.8281 92.2634 55.8281 90.3593C55.8281 88.4552 57.3771 86.9062 59.2812 86.9062ZM59.2812 103.375C57.3771 103.375 55.8281 101.826 55.8281 99.9218C55.8281 98.0176 57.3771 96.4687 59.2812 96.4687H69.6122C70.2823 98.9673 71.371 101.296 72.7987 103.375H59.2812ZM91.4219 110.547C80.437 110.547 71.5001 101.61 71.5001 90.625C71.5001 79.6401 80.437 70.7032 91.4219 70.7032C102.407 70.7032 111.344 79.6401 111.344 90.625C111.344 101.61 102.407 110.547 91.4219 110.547Z" fill="#A7A7A7"/>
</svg>
